<svg xmlns="http://www.w3.org/2000/svg" xmlns:xlink="http://www.w3.org/1999/xlink" version="1.1" id="レビュアーランキングロゴ" x="0px" y="0px" viewBox="0 0 158 24" style="enable-background:new 0 0 158 24;" xml:space="preserve"><script xmlns=""/>
<style type="text/css">
	.st0{fill:none;}
	.st1{fill:#A08700;}
</style>
<rect class="st0" width="158" height="24"/>
<g>
	<g id="ロゴタイプ">
		<path d="M20.89073,8.26626c0.07025,0.46387,0.07025,0.46387,0.07025,1.44767l-0.05616,7.5898    c0,0.81512-0.02818,1.06814-0.12651,1.44767l0.89946,1.08223c0.29519-0.11242,0.46387-0.16868,0.8433-0.23893    c2.27698-0.43569,3.71056-0.9839,5.11606-1.92553c1.265-0.8433,2.16446-1.78503,3.13427-3.27487    c-0.60437-0.50594-0.78704-0.7028-1.33515-1.43358c-0.7028,1.36333-1.57418,2.33314-2.86726,3.21861    c-1.05415,0.73078-2.37531,1.2649-3.83707,1.546l0.07025-8.02538c0.01409-0.68871,0.02818-1.04016,0.08434-1.41959    L20.89073,8.26626z"/>
		<path d="M36.11898,9.7561c0-0.64654,0.01409-0.94163,0.07025-1.30707h-1.88336c0.05626,0.37943,0.05626,0.57619,0.05626,1.29308    l0.01399,6.52146c0,0.81522,0.01409,1.05415,0.04217,1.29308c0.08434,0.68871,0.29519,1.13849,0.68871,1.43368    c0.54811,0.4216,1.51792,0.60437,3.27487,0.60437c1.05405,0,2.811-0.09843,3.9354-0.21085    c1.01198-0.09843,1.11031-0.11242,1.39141-0.11242l-0.08434-1.86937c-0.61836,0.18277-0.92764,0.25302-1.60226,0.33736    c-1.02597,0.1405-2.31905,0.22484-3.26078,0.22484c-1.36333,0-2.16446-0.11242-2.40339-0.36544    c-0.19676-0.19676-0.25302-0.52003-0.25302-1.33525c0-0.04207,0-0.11242,0-0.18267    c0.01409-0.02808,0.01409-0.04217,0.01409-0.04217v-1.81311c2.50182-0.49195,4.30083-1.08223,6.28262-2.08012    c0.77305-0.37953,0.82921-0.40761,0.9838-0.46387l-1.1244-1.58817c-1.06814,0.92764-3.7948,2.02396-6.14202,2.50182V9.7561z     M41.81123,8.57554c0.50604,0.54811,0.87148,1.06814,1.30717,1.86927l1.05415-0.59028    c-0.47786-0.87148-0.73088-1.23692-1.32116-1.85528L41.81123,8.57554z M45.67638,8.95497    c-0.4216-0.73088-0.74487-1.18066-1.30707-1.75685l-1.01198,0.54811c0.52003,0.57629,0.87138,1.08223,1.27899,1.81311    L45.67638,8.95497z"/>
		<path d="M54.80478,18.09077c0.23893-1.2649,0.39352-2.26289,0.60437-3.80889c0.15459-1.16657,0.15459-1.16657,0.32327-1.60226    l-0.77305-0.67472c-0.33726,0.09843-0.54811,0.12651-1.04006,0.12651h-3.55597c-0.54811,0-0.94163-0.02808-1.29308-0.08434    v1.58827c0.36544-0.04217,0.57629-0.05626,1.25091-0.05626h3.48572c-0.1406,1.27899-0.43569,3.26078-0.67462,4.51169h-4.14625    c-0.64654,0-0.89956-0.01409-1.29308-0.08434v1.60226c0.37943-0.04217,0.67462-0.05616,1.29308-0.05616h7.29451    c0.59038,0,0.91365,0.01399,1.29308,0.05616v-1.60226c-0.37943,0.07025-0.64654,0.08434-1.29308,0.08434H54.80478z"/>
		<path d="M71.87412,8.57554c-0.39352,0.11242-0.52003,0.12641-1.36333,0.12641h-7.33678c-0.96981,0-1.4055-0.02808-1.93962-0.11242    v1.75695c0.57629-0.07035,0.92764-0.08434,1.91154-0.08434h7.37885c-0.32327,0.67462-0.75896,1.25091-1.33525,1.78493    c-0.57619,0.54821-1.11031,0.87148-2.05204,1.29308c0.63255,0.47786,0.8433,0.68871,1.265,1.27899    c0.66063-0.36544,1.1244-0.67462,1.6866-1.16657c0.85739-0.73088,1.67261-1.78493,2.16446-2.82499    C72.619,9.8967,72.619,9.88261,72.81575,9.64368L71.87412,8.57554z M65.19798,11.41462    c0.05616,0.29519,0.07025,0.4216,0.07025,0.8433c0,2.65641-0.44978,3.86515-1.88336,5.00364    c-0.68871,0.54811-1.32126,0.85729-2.45965,1.19465c0.5622,0.59028,0.74487,0.8433,1.11031,1.60226    c1.75695-0.73088,2.78292-1.44767,3.62622-2.5299c0.95572-1.22283,1.33524-2.57207,1.3915-4.97546    c0.01399-0.85739,0.01399-0.87148,0.05616-1.13849H65.19798z"/>
		<path d="M74.7056,14.91433c0.5622-0.07025,0.71679-0.07025,2.29097-0.07025h7.46329c1.57418,0,1.72877,0,2.29097,0.07025v-1.95361    c-0.61846,0.08424-0.88547,0.09833-2.27688,0.09833h-7.49136c-1.39151,0-1.65852-0.01409-2.27699-0.09833V14.91433z"/>
		<path d="M91.1562,10.00912c0.43568-0.05626,0.7028-0.07025,1.61635-0.07025h4.96146c0.91355,0,1.18056,0.01399,1.61635,0.07025    V8.28035c-0.46387,0.08434-0.75896,0.09833-1.64442,0.09833h-4.90531c-0.88547,0-1.18056-0.01399-1.64442-0.09833V10.00912z     M100.06715,11.63946c-0.43568,0.09843-0.71679,0.12651-1.58826,0.12651h-6.69014c-0.98389,0-1.29308-0.01399-1.82719-0.09833    v1.71468c0.50594-0.05626,0.85738-0.07025,1.79902-0.07025h6.84483c-0.61836,1.56009-1.22273,2.41748-2.26289,3.28886    c-1.08223,0.89956-2.19254,1.41959-3.90732,1.85528c0.61846,0.68871,0.78714,0.92764,1.09632,1.63044    c1.77094-0.66063,2.68459-1.13849,3.68248-1.91154c1.46166-1.1244,2.5299-2.68449,3.26078-4.75062    c0.16868-0.43569,0.25291-0.63245,0.39352-0.88547L100.06715,11.63946z"/>
		<path d="M103.79829,10.30431c1.30717,0.73078,2.45965,1.65842,3.58405,2.85317l1.20874-1.53201    c-1.08223-1.02607-1.95361-1.67261-3.62611-2.71267L103.79829,10.30431z M104.29025,19.58061    c0.32327-0.11242,0.36544-0.12651,0.92764-0.23893c2.17855-0.46377,3.92141-1.15248,5.35499-2.1083    c1.92553-1.27899,3.26078-2.93751,4.45543-5.50958c-0.71679-0.50594-0.94163-0.71679-1.48984-1.37732    c-0.4216,1.13839-0.81512,1.91144-1.43358,2.811c-1.11031,1.60226-2.41748,2.68449-4.17433,3.44345    c-1.27899,0.5622-2.9516,0.96981-4.16034,1.04006L104.29025,19.58061z"/>
		<path d="M121.87952,10.61349l-2.61433,0.40761c-0.59028,0.08434-1.04006,0.1405-1.54601,0.15459l0.28111,1.72877    c0.37943-0.11242,0.89956-0.21085,1.5461-0.32327l2.61424-0.40761l0.4216,2.30506l-3.41537,0.54811    c-0.60437,0.09843-1.01198,0.1406-1.48984,0.1406l0.28111,1.72877c0.50594-0.1406,0.75896-0.19676,1.43358-0.30928    l3.47163-0.54811l0.50603,2.76883c0.11243,0.66063,0.16859,1.05415,0.18267,1.47585l1.88336-0.33736    c-0.15459-0.47786-0.16868-0.52003-0.33726-1.44767l-0.50604-2.72666l3.34512-0.53412    c0.28111-0.04217,0.46387-0.07025,0.5622-0.08434c0.07025-0.01409,0.14059-0.02808,0.22484-0.02808    c0.2952-0.05626,0.35146-0.05626,0.64655-0.07025l-0.30919-1.6867c-0.37943,0.11252-0.87137,0.22494-1.46175,0.32327    l-3.30295,0.52003l-0.4216-2.30496l2.96559-0.46387c0.9698-0.15459,0.9698-0.15459,1.34934-0.18267l-0.2952-1.6866    c-0.36544,0.12651-0.66063,0.19676-1.34924,0.30918l-2.96569,0.46387l-0.22484-1.22283    c-0.09843-0.54811-0.15459-0.95572-0.16869-1.32116l-1.85528,0.29509c0.15459,0.39362,0.21085,0.63255,0.33736,1.32126    L121.87952,10.61349z"/>
		<path d="M131.8933,10.30431c1.30716,0.73078,2.45964,1.65842,3.58405,2.85317l1.20874-1.53201    c-1.08223-1.02607-1.95361-1.67261-3.62622-2.71267L131.8933,10.30431z M132.38524,19.58061    c0.32327-0.11242,0.36543-0.12651,0.92764-0.23893c2.17854-0.46377,3.92131-1.15248,5.35498-2.1083    c1.92554-1.27899,3.26079-2.93751,4.45543-5.50958c-0.71678-0.50594-0.94173-0.71679-1.48984-1.37732    c-0.4216,1.13839-0.81522,1.91144-1.43358,2.811c-1.11041,1.60226-2.41748,2.68449-4.17442,3.44345    c-1.27899,0.5622-2.95151,0.96981-4.16025,1.04006L132.38524,19.58061z"/>
		<path d="M155.54034,9.77019l0.74498-0.26711c-0.32327-0.75896-0.56221-1.16657-1.08223-1.81301l-1.1244,0.39352    c0.39352,0.50594,0.68871,0.99789,0.96982,1.61635c-0.15469,0.02808-0.33737,0.04217-0.7028,0.04217l-3.078,0.04207    c-0.2952,0.01409-0.52014,0.01409-0.67473,0.02818c0.19676-0.36544,0.2952-0.57629,0.54822-1.13849    c0.16867-0.35135,0.16867-0.36544,0.2811-0.50594l-1.92554-0.39362c-0.05626,0.50604-0.2811,1.06824-0.71689,1.86937    c-1.02597,1.85528-2.03795,2.97968-3.6402,4.076c0.73087,0.44978,0.94162,0.63245,1.36333,1.20874    c1.33525-1.02607,2.43156-2.23481,3.28885-3.61223l4.23059-0.05616c-0.77304,2.51581-2.09421,4.42735-4.10408,5.93118    c-0.88547,0.66063-1.6725,1.08233-3.078,1.64453c0.61836,0.53402,0.80113,0.77295,1.19464,1.47575    c2.16446-0.9839,3.71057-2.08012,5.00365-3.55597c1.23682-1.39141,2.23471-3.28886,2.88124-5.42524    c0.1546-0.52003,0.21086-0.63245,0.35135-0.8433L155.54034,9.77019z M158,8.95497    c-0.30917-0.67462-0.59029-1.13849-1.08223-1.74286l-1.09631,0.4217c0.42169,0.54811,0.75905,1.13849,1.05414,1.78503L158,8.95497    z"/>
	</g>
	<g id="ロゴマーク">
		<path class="st1" d="M9.17057,16.69651c-0.38972-0.19756-0.80523-0.32437-1.27549-0.37363    c-0.17647-0.02188-0.22994-0.06715-0.27181-0.10702c-0.04177-0.04017-0.11242-0.12681-0.11242-0.25852    c0-0.10453,0.04637-0.19916,0.12081-0.26601l0.12891-0.11792c0.29499-0.2807,0.51773-0.60357,0.67212-0.94782    c0.49395-1.09972,0.27111-2.42118-0.67212-3.31834c-0.61966-0.58898-1.43118-0.88367-2.2429-0.88367    c-0.81162,0-1.62324,0.29469-2.2427,0.88367c-0.94333,0.89716-1.16587,2.21862-0.67192,3.31834    c0.15439,0.34425,0.37713,0.66712,0.67222,0.94782l0.12891,0.11792c0.07445,0.06655,0.12081,0.16149,0.12081,0.26601    c0,0.13171-0.07065,0.21864-0.11252,0.25852c-0.04227,0.04017-0.09523,0.08544-0.27181,0.10702    c-0.46987,0.04956-0.88567,0.17607-1.27549,0.37363C0.75696,17.25871,0,18.36881,0,19.64461v0.01799    c0,0.75436,0.64534,1.36823,1.43858,1.36823h4.0791h4.0796c0.79304,0,1.43848-0.61386,1.43848-1.36823v-0.01799    C11.03574,18.36881,10.27908,17.25871,9.17057,16.69651z M9.91694,19.66259c0,0.16728-0.1438,0.30408-0.31967,0.30408h-4.0796    h-4.0794c-0.17597,0-0.31977-0.1368-0.31977-0.30408v-0.01799c0-1.17666,0.93124-2.1134,2.15906-2.26489    c0.57919-0.08114,0.83211-0.31318,1.00459-0.50654c0.141-0.15779,0.24013-0.32227,0.30538-0.55001    c0.15849-0.5668-0.07165-1.1244-0.52143-1.50263c-0.80043-0.76136-0.80043-2.00008,0-2.76113    c0.38772-0.36854,0.90336-0.57159,1.45157-0.57159c0.54831,0,1.06394,0.20306,1.45167,0.57189    c0.80043,0.76136,0.80043,2.00008,0,2.76113c-0.44978,0.37823-0.67962,0.93613-0.52143,1.50263    c0.06525,0.22774,0.16408,0.39222,0.30528,0.55001c0.17268,0.19306,0.4255,0.4254,1.00468,0.50654    c1.22783,0.15139,2.15906,1.08793,2.15906,2.26499V19.66259z"/>
		<path class="st1" d="M4.80758,3.6447c0,0.37293,0.31777,0.67552,0.71009,0.67552c0.39212,0,0.71019-0.30258,0.71019-0.67552    c0-0.37323-0.31777-0.67552-0.71019-0.67552C5.12565,2.96918,4.80758,3.27147,4.80758,3.6447z M9.06834,4.32022    c0,0.37283,0.31777,0.67552,0.71019,0.67552c0.39202,0,0.71019-0.30268,0.71019-0.67552    c0-0.37323-0.31787-0.67552-0.71019-0.67552C9.38612,3.6447,9.06834,3.94698,9.06834,4.32022z M0.54711,4.32022    c0,0.37283,0.31777,0.67552,0.71019,0.67552c0.39232,0,0.71009-0.30268,0.71009-0.67552    c0-0.37323-0.31777-0.67552-0.71009-0.67552C0.86488,3.6447,0.54711,3.94698,0.54711,4.32022z M1.9671,4.99574l0.71019,4.05291    h5.68085l0.71019-4.05291L7.29511,6.77427L5.51767,5.01872L3.77361,6.77397L1.9671,4.99574z"/>
	</g>
</g>
<g>
</g>
<g>
</g>
<g>
</g>
<g>
</g>
<g>
</g>
<g>
</g>
</svg>