<svg xmlns="http://www.w3.org/2000/svg" xmlns:xlink="http://www.w3.org/1999/xlink" version="1.1" id="rsttop_hyakumeiten_logo" x="0px" y="0px" width="441px" height="262.097px" viewBox="0 0 441 262.097" enable-background="new 0 0 441 262.097" xml:space="preserve"><script xmlns=""/>
<g>
	<defs>
		<rect id="SVGID_1_" x="-199" y="-154.288" width="858.896" height="612.288"/>
	</defs>
	<clipPath id="SVGID_2_">
		<use xlink:href="#SVGID_1_" overflow="visible"/>
	</clipPath>
	<path clip-path="url(#SVGID_2_)" fill="#1E1C1C" d="M111.11,182.047h36.507c3.347,0,6.06-2.716,6.06-6.063   c0-3.345-2.713-6.059-6.06-6.059H111.11c-3.344,0-6.062,2.714-6.062,6.059C105.048,179.331,107.766,182.047,111.11,182.047"/>
	<path clip-path="url(#SVGID_2_)" fill="#1E1C1C" d="M440.201,108.255c0-3.347-2.715-6.059-6.061-6.059h-31.516v-5.872   c0-3.346-2.719-6.056-6.064-6.056s-6.055,2.71-6.055,6.056v5.872h-32.307c-1.77-0.096-8.477-0.124-13.861,4.764   c-4.203,3.822-6.34,9.395-6.34,16.566v94.536c0,3.347,2.715,6.057,6.064,6.057c3.342,0,6.055-2.71,6.055-6.057v-94.536   c0-3.572,0.779-6.101,2.316-7.542c1.697-1.594,4.18-1.701,4.822-1.701c0.117,0,0.16,0,0.16,0.006   c0.186,0.016,0.383,0.028,0.576,0.028h76.148C437.486,114.317,440.201,111.603,440.201,108.255"/>
	<path clip-path="url(#SVGID_2_)" fill="#1E1C1C" d="M418.596,170.832h-15.77v-17.147h30.906c3.348,0,6.059-2.714,6.059-6.052   c0-3.351-2.711-6.064-6.059-6.064h-30.906v-13.061c0-3.343-2.715-6.057-6.061-6.057s-6.059,2.714-6.059,6.057v42.324h-8.631   c-10.258,0-18.607,8.346-18.607,18.608v15.906c0,10.265,8.35,18.609,18.607,18.609h36.52c10.26,0,18.611-8.345,18.611-18.609   V189.44C437.207,179.178,428.855,170.832,418.596,170.832 M425.08,205.347c0,3.579-2.906,6.494-6.484,6.494h-36.52   c-3.576,0-6.49-2.915-6.49-6.494V189.44c0-3.581,2.914-6.489,6.49-6.489h36.52c3.578,0,6.484,2.908,6.484,6.489V205.347z"/>
	<path clip-path="url(#SVGID_2_)" fill="#1E1C1C" d="M181.678,101.72H77.032c-3.347,0-6.061,2.713-6.061,6.058   c0,3.343,2.714,6.057,6.061,6.057h51.887l-15.108,15.598h-11.376c-10.977,0-19.911,8.936-19.911,19.911v55.313   c0,10.979,8.934,19.907,19.911,19.907h53.841c10.982,0,19.913-8.928,19.913-19.907v-55.313c0-10.975-8.931-19.911-19.913-19.911   h-24.391l15.11-15.598h34.683c3.346,0,6.061-2.714,6.061-6.057C187.739,104.433,185.024,101.72,181.678,101.72 M164.066,149.344   v55.313c0,4.295-3.493,7.786-7.79,7.786h-53.841c-4.298,0-7.793-3.491-7.793-7.786v-55.313c0-4.293,3.495-7.79,7.793-7.79h53.841   C160.573,141.554,164.066,145.051,164.066,149.344"/>
	<path clip-path="url(#SVGID_2_)" fill="#1E1C1C" d="M289.4,170.832h-35.777l42.539-43.436c0.082-0.08,1.809-2.062,2.494-2.877   c5.111-6.038,5.734-10.586,3.297-15.289c-2.234-4.339-5.809-6.814-12.109-6.814c-1.051,0-4.191-0.006-4.175-0.006H248.1   c-1.525,0-3.004,0.579-4.119,1.614l-33.777,31.308c-2.449,2.271-2.597,6.11-0.325,8.561c2.271,2.447,6.108,2.598,8.565,0.325   l32.031-29.688h34.068c0,0,3.355,0,5.266,0.03c0.641,0.01,1.182,0,1.449,0.303c0.266,0.498-0.107,0.976-0.381,1.297   c-2.764,3.187-3.574,3.956-3.893,4.276L257.857,149.4l-10.855-10.863c-2.371-2.36-6.203-2.36-8.57,0   c-2.363,2.373-2.363,6.211,0,8.58l10.877,10.875l-45.81,46.021c-2.361,2.37-2.35,6.209,0.019,8.567   c1.183,1.177,2.729,1.762,4.278,1.762c1.553,0,3.109-0.591,4.291-1.781l22.195-22.298v15.084c0,10.263,8.347,18.609,18.611,18.609   H289.4c10.264,0,18.621-8.347,18.621-18.609V189.44C308.021,179.178,299.664,170.832,289.4,170.832 M295.898,205.347   c0,3.579-2.912,6.494-6.498,6.494h-36.508c-3.576,0-6.49-2.915-6.49-6.494V189.44c0-3.581,2.914-6.489,6.49-6.489H289.4   c3.586,0,6.498,2.908,6.498,6.489V205.347z"/>
	<path clip-path="url(#SVGID_2_)" fill="#1E1C1C" d="M111.73,249.795h-9.019v-8.079h-4.51v20.118h4.51V253.7h9.019v8.134h4.511   v-20.118h-4.511V249.795z M138.542,248.043l-3.933-6.327h-5.466l7.143,10.73v9.388h4.51v-9.38l7.14-10.738h-5.457L138.542,248.043z    M166.208,241.716l-7.313,20.118h4.778l1.351-3.974h8.104l1.496,3.974h4.848l-8.044-20.118H166.208z M166.219,254.345l2.663-7.814   l2.929,7.814H166.219z M207.639,241.716h-4.965l-5.759,9.061v-9.061h-4.504v20.118h4.504v-9.426l7.185,9.426h5.633l-7.992-10.655   L207.639,241.716z M235.824,252.938c0,1.591-0.416,2.818-1.248,3.687c-0.836,0.865-1.951,1.291-3.338,1.291   c-1.344,0-2.423-0.421-3.244-1.261c-0.826-0.848-1.235-1.973-1.235-3.376v-11.563h-4.531v11.454c0,2.881,0.793,5.086,2.379,6.617   c1.586,1.542,3.815,2.31,6.682,2.31c2.904,0,5.138-0.764,6.702-2.275c1.559-1.52,2.34-3.739,2.34-6.684v-11.422h-4.508V252.938z    M264.869,249.178l-5.83-7.462h-3.92v20.118h4.514v-12.552l4.893,6.302h0.674l4.891-6.302v12.552h4.512v-20.118h-3.918   L264.869,249.178z M294.053,253.314h8.256v-3.69h-8.256v-4.22h8.656v-3.688h-13.17v20.118h13.354v-3.687h-8.84V253.314z    M317.371,261.834h4.51v-20.118h-4.51V261.834z M335.656,245.404h6.557v16.43h4.508v-16.43h6.563v-3.688h-17.627V245.404z    M371.475,253.314h8.252v-3.69h-8.252v-4.22h8.654v-3.688h-13.17v20.118h13.352v-3.687h-8.836V253.314z M408.465,241.716v12.297   l-9.666-12.297h-4.137v20.118h4.514v-12.885l9.998,12.885h3.799v-20.118H408.465z"/>
	<path clip-path="url(#SVGID_2_)" fill="#9E7D36" d="M313.828,76.712l-43.896-48.734c-1.068-1.19-2.572-1.895-4.168-1.957   c-1.613-0.085-3.148,0.526-4.305,1.629l-32.742,31.188L192.604,18c-1.088-1.228-2.637-1.951-4.276-1.995   c-1.638-0.048-3.224,0.598-4.373,1.769L143.719,58.75L113.426,29.2c-1.125-1.1-2.641-1.703-4.219-1.679   c-1.574,0.026-3.075,0.675-4.166,1.81L2.347,133.766c-2.265,2.356-2.195,6.096,0.156,8.364c1.148,1.104,2.624,1.652,4.103,1.652   c1.55,0,3.098-0.602,4.258-1.809l98.568-100.148l30.25,29.507c2.328,2.268,6.063,2.234,8.346-0.09l39.92-40.654l48.81,55.197   c2.164,2.447,5.9,2.674,8.346,0.512c2.447-2.167,2.676-5.899,0.514-8.348l-9.061-10.245l28.656-27.296l39.826,44.22   c1.168,1.297,2.779,1.959,4.398,1.959c1.408,0,2.824-0.501,3.953-1.521C315.82,82.878,316.012,79.142,313.828,76.712"/>
	<path clip-path="url(#SVGID_2_)" fill="#1E1C1C" d="M432.338,59.122c-0.018-0.512-0.391-0.942-0.895-1.042l-13.717-2.518   c-0.363-0.067-0.719,0.049-0.971,0.286c-0.242,0.249-0.357,0.59-0.32,0.928c-1.281-0.335-2.5-0.759-3.512-1.296   c-2.674-1.396-6.207-4.178-7.789-9.413c-1.082-3.583-3.793-9.818-5.578-13.944l-1.301-3c-0.355-0.859-0.924-1.828-1.646-2.842   l5.297-2.861c0.709-0.385,0.971-1.274,0.568-1.981l-2.311-4.148c-0.402-0.709-1.293-0.96-1.99-0.556l-6.969,4.04   c-1.076-0.82-2.217-1.555-3.391-2.126c-1.566-0.769-4.014-1.848-6.566-2.939l11.434-7.499c0.672-0.447,0.844-1.359,0.4-2.026   l-2.66-3.937c-0.465-0.667-1.375-0.834-2.037-0.38l-15.021,10.552c-1.248-0.521-2.107-0.859-2.297-0.934   c-0.543-0.314-3.639-1.846-8.301,0.262c-4.469,2.022-8.535,3.539-8.574,3.553c-0.344,0.13-3.314,1.291-4.441,2.957   c-1.152,1.725-4.311,5.704-5.416,6.402c-1.301,0.813-2.902,2.38-3.129,4.109c-0.018,0.105-0.027,0.198-0.025,0.304   c-0.029,0.741,0.213,1.432,0.727,1.993c0.822,0.88,1.941,1.249,2.893,1.408l-55.748,39.149c-0.672,0.466-0.84,1.384-0.391,2.055   l0.5,0.731c0.447,0.665,1.363,0.844,2.041,0.398l51.689-33.916c-0.002,0.978,0.168,3.475,1.77,4.718   c0.527,0.408,1.404,0.791,2.666,0.627l-54.143,31.408c-0.703,0.403-0.959,1.291-0.566,2.01l0.43,0.761   c0.412,0.711,1.293,0.973,2.01,0.585l53.209-28.676c-0.471,1.793-0.805,3.456-0.848,4.721c-0.02,0.502,0.008,0.946,0.072,1.296   c0.52,2.268,1.631,3.781,3.109,4.259c0.73,0.231,1.816,0.265,3.129-0.455c0.375,1.147,1,2.582,2.094,3.359   c0.676,0.493,1.475,0.683,2.277,0.541c1.76-0.294,3.812-1.971,5.102-4.185c0.883-1.51,1.361-3.113,1.422-4.706   c0.018-0.554-0.023-1.103-0.096-1.655c1.449,0.419,3.578,1.348,4.803,3.348c2.387,3.895,10.893,14.502,15.91,16.516l2.893,1.236   c4.299,1.906,10.197,4.514,18.359,5.574c0.035,0.02,0.094,0.028,0.129,0.036c-0.057,0.139-0.113,0.29-0.121,0.438   c-0.002,0.466,0.27,0.88,0.707,1.049l14.402,5.731c0.248,0.1,0.525,0.102,0.781,0.014C422.832,89.29,433.299,85.276,432.338,59.122    M386.852,20.625c0.775,0.375,1.545,0.83,2.295,1.352l-15.387,8.927c-0.633-0.36-1.338-0.719-2.096-1.04l-2.369-0.967   c-1.402-0.57-3.234-1.316-4.994-2.065l14.729-9.668C382.031,18.432,385.07,19.755,386.852,20.625 M343.383,29.061   c0.102-0.75,1.012-1.844,2.121-2.541c1.734-1.089,5.32-5.904,6.076-7.037c0.545-0.818,2.369-1.734,3.379-2.122   c0.035-0.013,4.174-1.554,8.697-3.607c3.912-1.764,6.27-0.394,6.369-0.334c0.057,0.031,0.121,0.058,0.174,0.082   c0.016,0.013,0.395,0.165,1.018,0.418l-13.758,9.665c-2.5-0.783-5.371,0.319-6.918,2.099c-0.6,0.701-1.01,1.646-1.225,2.696   c-0.842,1.951-2.449,2.005-2.646,1.996c-0.01,0-0.021,0.009-0.039,0.006c-0.047-0.006-0.086-0.003-0.135-0.001   c-0.566,0.044-2.217-0.005-2.969-0.812C343.395,29.417,343.346,29.275,343.383,29.061 M346.002,43.865   c-0.811-0.62-0.928-2.43-0.896-3.143c0.01-0.067,0.188-0.685,0.447-1.579l5.682-3.732c0.482,0.602,1.052,1.151,1.695,1.659   c-0.129,2.227-0.787,3.845-0.797,3.865c-0.014,0.018-0.848,1.806-4.504,2.987C346.536,44.271,346.139,43.968,346.002,43.865    M354.166,41.775c0.002-0.001,0.008-0.01,0.008-0.01c0.074-0.203,0.582-1.492,0.834-3.356c1.008,0.572,1.971,1.137,2.908,1.677   l-4.006,2.316C354.008,42.191,354.086,41.979,354.166,41.775 M353.631,59.561c-0.914,0.799-1.746,1.136-2.352,0.947   c-0.703-0.224-1.32-1.215-1.637-2.655c-0.051-0.213-0.061-0.482-0.053-0.804c0.059-1.382,0.623-3.659,1.381-6.175l6.711-3.616   c-0.549,1.511-1.002,3.367-0.973,5.274C356.75,55.575,354.061,59.032,353.631,59.561 M407.076,80.045   c-0.055-0.012-0.123-0.025-0.188-0.028c-7.906-1.027-13.67-3.566-17.881-5.426l-2.949-1.278   c-4.305-1.729-12.529-11.812-14.852-15.609c-2.033-3.342-5.752-4.342-7.324-4.623c-0.371-1.017-1.109-2.907-1.922-3.875   c-0.395-0.464-1.092-0.526-1.547-0.125c-0.463,0.384-0.527,1.087-0.135,1.551c0.611,0.715,1.379,2.696,1.725,3.777   c0,0,0.004,0.01,0.004,0.012c0.006,0.008,0.004,0.016,0.004,0.022c0.979,2.74-0.016,5.12-0.701,6.303   c-1.088,1.844-2.615,2.973-3.563,3.124c-0.246,0.041-0.432,0.002-0.637-0.153c-0.74-0.528-1.283-2.016-1.523-3.089   c0.918-1.193,3.367-4.711,3.322-8.131c-0.039-2.945,1.35-5.929,1.99-6.975l3.227-1.752c2.457,1.5,4.098,2.559,4.551,2.976   l0.77,0.652c1.637,1.35,5.033,4.178,5.602,7.27c0.789,4.357,6.51,14.144,12.578,16.637c0.559,0.231,1.201-0.035,1.428-0.605   c0.236-0.561-0.037-1.207-0.59-1.436c-5.318-2.186-10.557-11.153-11.262-14.986c-0.697-3.885-4.371-6.936-6.355-8.583l-0.709-0.587   c-1.58-1.442-11.664-7.25-14.713-9.001c-2.955-1.69-3.748-4.024-3.961-5.259c-0.25-1.456,0.051-2.919,0.746-3.726   c1.057-1.216,3.492-2.279,5.34-1.09c2.121,1.344,7.404,3.49,10.928,4.902l2.328,0.957c2.158,0.921,4.021,2.271,4.053,2.285   c0.256,0.199,7.064,5.408,9.438,6.812c3.215,1.874,5.771,0.442,6.662-0.578c0.396-0.453,0.359-1.138-0.102-1.541   c-0.449-0.413-1.127-0.37-1.541,0.08c-0.145,0.156-1.518,1.523-3.902,0.132c-1.137-0.664-3.438-2.328-5.469-3.83l14.713-7.922   c0.691,0.939,1.24,1.845,1.566,2.637L397.533,33c1.771,4.078,4.445,10.243,5.488,13.708c1.818,5.966,5.832,9.132,8.885,10.727   c1.38,0.729,3.078,1.261,4.768,1.682c0.389,5.09,0.424,17.263-7.396,21.636C408.184,80.396,407.311,80.122,407.076,80.045    M421.975,87.207c-0.707-0.279-8.402-3.343-11.588-4.606c6.643-3.704,8.379-11.882,8.621-18.133   c0.107-2.696-0.059-5.018-0.211-6.469c2.193,0.398,9.992,1.836,11.354,2.094c0.045,1.882,0.055,3.67-0.008,5.295   C429.494,81.959,423.453,86.361,421.975,87.207"/>
	<rect x="-3.301" y="363.326" clip-path="url(#SVGID_2_)" fill="#161106" width="20.445" height="20.445"/>
</g>
<text transform="matrix(1 0 0 1 29.8896 369.4072)"><tspan x="0" y="0" fill="#221613" font-family="'ArialMT'" font-size="6.8032">R</tspan><tspan x="5.042" y="0" fill="#221613" font-family="'ArialMT'" font-size="6.8032">GB : </tspan><tspan x="21.223" y="0" fill="#221613" font-family="'ArialMT'" font-size="6.8032">R30</tspan><tspan x="34.09" y="0" fill="#221613" font-family="'ArialMT'" font-size="6.8032">, G</tspan><tspan x="43.571" y="0" fill="#221613" font-family="'ArialMT'" font-size="6.8032">28</tspan><tspan x="51.396" y="0" fill="#221613" font-family="'ArialMT'" font-size="6.8032">, B</tspan><tspan x="60.123" y="0" fill="#221613" font-family="'ArialMT'" font-size="6.8032">2</tspan><tspan x="64.036" y="0" fill="#221613" font-family="'ArialMT'" font-size="6.8032">8</tspan></text>
<text transform="matrix(1 0 0 1 29.8896 382.1631)"><tspan x="0" y="0" fill="#221613" font-family="'ArialMT'" font-size="6.8032">WEB : </tspan><tspan x="21.983" y="0" fill="#221613" font-family="'ArialMT'" font-size="6.8032">#1e1c1</tspan><tspan x="45.079" y="0" fill="#221613" font-family="'ArialMT'" font-size="6.8032">c</tspan></text>
<g>
	<defs>
		<rect id="SVGID_3_" x="-199" y="-154.288" width="858.896" height="612.288"/>
	</defs>
	<clipPath id="SVGID_4_">
		<use xlink:href="#SVGID_3_" overflow="visible"/>
	</clipPath>
	<rect x="-137.903" y="362.494" clip-path="url(#SVGID_4_)" fill="#9E7D36" width="20.445" height="20.445"/>
</g>
<text transform="matrix(1 0 0 1 -102.7085 368.5762)"><tspan x="0" y="0" fill="#221613" font-family="'ArialMT'" font-size="6.8032">R</tspan><tspan x="5.042" y="0" fill="#221613" font-family="'ArialMT'" font-size="6.8032">GB : </tspan><tspan x="21.223" y="0" fill="#221613" font-family="'ArialMT'" font-size="6.8032">R158</tspan><tspan x="38.003" y="0" fill="#221613" font-family="'ArialMT'" font-size="6.8032">, G</tspan><tspan x="47.483" y="0" fill="#221613" font-family="'ArialMT'" font-size="6.8032">125</tspan><tspan x="59.222" y="0" fill="#221613" font-family="'ArialMT'" font-size="6.8032">, B</tspan><tspan x="67.948" y="0" fill="#221613" font-family="'ArialMT'" font-size="6.8032">5</tspan><tspan x="71.861" y="0" fill="#221613" font-family="'ArialMT'" font-size="6.8032">4</tspan></text>
<text transform="matrix(1 0 0 1 -102.7085 381.332)"><tspan x="0" y="0" fill="#221613" font-family="'ArialMT'" font-size="6.8032">WEB : </tspan><tspan x="21.983" y="0" fill="#221613" font-family="'ArialMT'" font-size="6.8032">#9e7d3</tspan><tspan x="45.46" y="0" fill="#221613" font-family="'ArialMT'" font-size="6.8032">6</tspan></text>
<rect id="_x3C_スライス_x3E_" fill="none" width="441" height="262"/>
</svg>