<svg xmlns="http://www.w3.org/2000/svg" viewBox="0 0 281.6 35.9"><script xmlns=""/><defs><style>.cls-1{fill:#f4a417;}.cls-2{fill:#040000;}.cls-3,.cls-4{fill:#f19018;}.cls-3{stroke:#f19018;stroke-width:0.3px;}.cls-5{fill:#463f2b;}</style></defs><title>footer_tabelog_matome_re1</title><g id="レイヤー_2" data-name="レイヤー 2"><g id="食べログPay_グリーン" data-name="食べログPay グリーン"><path class="cls-1" d="M46.4,19.2c0-.2-.1-.3-.3-.4l-4.3-1h-.3c-.1,0-.2.1-.2.3l-1.1-.5a5.1,5.1,0,0,1-2.3-3.2c-.3-1.1-1-3.2-1.5-4.5L36,9l-.5-1,1.8-.8a.5.5,0,0,0,.2-.6l-.7-1.4a.5.5,0,0,0-.6-.2L33.9,6.2l-1.1-.8-2-1,3.8-2.2a.5.5,0,0,0,.1-.7L34,.2a.5.5,0,0,0-.7-.1l-5,3.1c-.4-.2-.7-.3-.7-.4a3.1,3.1,0,0,0-2.7,0,26.7,26.7,0,0,1-2.8,1,3.1,3.1,0,0,0-1.5.8,12.4,12.4,0,0,1-1.8,2,2.1,2.1,0,0,0-1.1,1.3h0a.7.7,0,0,0,.2.6,1.6,1.6,0,0,0,.9.5L.2,20.7a.4.4,0,0,0-.1.6v.3a.5.5,0,0,0,.7.1L18,11.8a1.9,1.9,0,0,0,.5,1.5,1.2,1.2,0,0,0,.9.3l-18,9.1a.5.5,0,0,0-.2.6l.2.3a.5.5,0,0,0,.6.2l17.6-8.3a5.6,5.6,0,0,0-.4,1.5v.4a1.9,1.9,0,0,0,.9,1.5,1.2,1.2,0,0,0,1-.1,3,3,0,0,0,.6,1.1,1.2,1.2,0,0,0,.8.2,3.2,3.2,0,0,0,1.7-1.3,2.4,2.4,0,0,0,.5-1.4v-.6A2.8,2.8,0,0,1,26.2,18c.7,1.3,3.2,4.8,4.8,5.6l.9.4a21,21,0,0,0,5.8,2.1h.1c-.1.1-.1.1-.1.2s.1.3.2.3l4.5,2.1c.1,0,.2.1.3,0S46.3,27.6,46.4,19.2ZM32.5,6.1l.7.4L28.1,9.1l-.6-.4-.8-.3-1.6-.8L30,4.8ZM18.4,8c0-.2.4-.6.7-.8a13.9,13.9,0,0,0,2.1-2.1c.2-.3.8-.5,1.1-.7l2.9-1a2.2,2.2,0,0,1,2,0,.1.1,0,0,0,.1.1h.3L23,6.5a2.2,2.2,0,0,0-2.2.5,1.3,1.3,0,0,0-.5.9,1,1,0,0,1-.9.6h0a2.2,2.2,0,0,1-1-.3Zm.6,4.8c-.3-.2-.3-.8-.3-1s.1-.3.2-.5l1.9-1.1.5.5c-.1.7-.3,1.2-.3,1.3h0s-.3.5-1.5.8Zm2.6-.5h0a2.5,2.5,0,0,0,.4-1.1l.9.6-1.4.7Zm-.4,5.6c-.4.3-.6.4-.8.3a1.3,1.3,0,0,1-.5-.9v-.2a11.5,11.5,0,0,1,.5-2l2.3-1a3.8,3.8,0,0,0-.4,1.6A4.8,4.8,0,0,1,21.2,17.9Zm16.7,7.5h0a21.8,21.8,0,0,1-5.7-2l-.9-.5c-1.3-.6-3.8-4-4.5-5.2A4,4,0,0,0,24.6,16a3.4,3.4,0,0,0-.6-1.2c-.1-.2-.3-.2-.5-.1a.4.4,0,0,0-.1.5,4.3,4.3,0,0,1,.5,1.2h0a2.5,2.5,0,0,1-.3,2c-.4.5-.9.9-1.2.9h-.2a1.3,1.3,0,0,1-.4-1A4.8,4.8,0,0,0,23,15.8a4.3,4.3,0,0,1,.7-2.2l1.1-.5,1.4,1,.2.2c.5.5,1.6,1.5,1.7,2.5s1.8,4.6,3.7,5.5a.4.4,0,0,0,.5-.2c.1-.1,0-.3-.1-.4-1.7-.8-3.2-3.8-3.4-5a5.7,5.7,0,0,0-1.9-2.9l-.2-.2a52,52,0,0,0-4.6-3.1A2.3,2.3,0,0,1,21,8.7a1.2,1.2,0,0,1,.3-1.2A1.5,1.5,0,0,1,23,7.3L26.4,9l.7.4a6,6,0,0,1,1.3.8l2.9,2.3a1.7,1.7,0,0,0,2.2,0,.4.4,0,0,0,0-.5c-.2-.2-.4-.2-.5,0a1.2,1.2,0,0,1-1.3-.1L30,10.6l4.9-2.3a6.3,6.3,0,0,1,.4.9l.4,1c.5,1.3,1.2,3.4,1.5,4.5a5.9,5.9,0,0,0,2.7,3.6l1.5.6c0,1.6-.2,5.5-2.8,6.8ZM42.6,28,39,26.3c2.1-1,2.8-3.6,3-5.6a17.9,17.9,0,0,0,.1-2.1l3.6.9c0,.6-.1,1.1-.1,1.7C45.1,26.5,43.1,27.8,42.6,28Z"/><path class="cls-2" d="M69.3,2.9a.7.7,0,0,0-.6-.3h-5a.9.9,0,0,0-.7.3L54.4,9.5a.3.3,0,0,0,0,.5l1.1,1.4c.1.2.3.2.5.1l2.2-1.7V23.4a.4.4,0,0,1-.4.4h-.5a.2.2,0,0,0-.2.2v2.1c0,.1,0,.2.1.2h5.3l2.9-1.1c.1,0,.1-.1.1-.2l-.7-2.1h-.3l-2.3.9H61.1a.4.4,0,0,1-.4-.4V19.3c0-.2.2-.3.4-.3h4.3l.6.2,5.4,7h4.9a.2.2,0,0,0,.2-.2V24a.2.2,0,0,0-.2-.2H73.1a.5.5,0,0,1-.5-.3l-.3-.4c-.2-.1-.1-.3.1-.4l1.4-.6c.1,0,.1-.1.1-.2l-.8-2.1h-.3l-2.1.9a.4.4,0,0,1-.5-.1l-1-1.3c-.1-.1,0-.2.2-.2H74l.2-.2v-9l2.2,1.7a.3.3,0,0,0,.5-.1L78,10c.1-.2.1-.4-.1-.5ZM71.6,16c0,.2-.1.4-.3.4H61.1c-.2,0-.4-.1-.4-.3v-.5a.4.4,0,0,1,.4-.4H71.3c.2,0,.3.2.3.4Zm0-3.7c0,.2-.1.4-.3.4H61.1a.4.4,0,0,1-.4-.4v-.4a.4.4,0,0,1,.4-.4H71.3c.2,0,.3.2.3.4ZM72.9,9H67.8a.4.4,0,0,1-.4-.4V8.1c0-.1,0-.2-.1-.2H65.1l-.2.2v.5a.4.4,0,0,1-.4.4H59.2L64,5.3h4.3L73.2,9Z"/><rect class="cls-2" x="91" y="8.4" width="2.5" height="2.63" rx="0.4"/><rect class="cls-2" x="94.8" y="8.4" width="2.5" height="2.63" rx="0.4"/><rect class="cls-2" x="137.8" y="3.9" width="2.5" height="2.63" rx="0.4"/><rect class="cls-2" x="141.5" y="3.9" width="2.5" height="2.63" rx="0.4"/><path class="cls-2" d="M120.4,8.9H105.6c-.1,0-.1.1-.1.2V24.3h15.1V9.1Zm-2.7,12.3c0,.2-.2.3-.4.3h-8.6a.3.3,0,0,1-.3-.3v-9c0-.2.1-.4.3-.4h8.6a.4.4,0,0,1,.4.4Z"/><path class="cls-2" d="M141.3,8.9H131.2a.2.2,0,0,1-.2-.2V8.3a.4.4,0,0,0-.4-.4h-2.2c-.2,0-.3.2-.3.4v4.3l-1.3,1.8c-.1.1,0,.3.1.4l1.8,1.3c.2.1.4.1.5-.1l1.7-2.3a1.4,1.4,0,0,0,.2-.7V11.9h7.6l.2.2v6.8a.5.5,0,0,1-.2.4l-5.4,5.4a.3.3,0,0,0,0,.5l1.5,1.6a.4.4,0,0,0,.5,0l6.2-6.2a.9.9,0,0,0,.3-.6V9.2C141.7,9,141.5,8.9,141.3,8.9Z"/><path class="cls-2" d="M89.4,12.6a.9.9,0,0,0-.7-.3H82.6c-.2,0-.3.2-.3.4v5.5c0,.2.1.4.3.4h2.2a.4.4,0,0,0,.4-.4V15.4a.2.2,0,0,1,.2-.2h2.3c.2,0,.3.1.3.2l9.2,9.1c.1.1.4.2.5,0L99.2,23c.2-.2.2-.4,0-.5Z"/><path class="cls-3" d="M223.4,35.8a2.1,2.1,0,0,1-1-.6,1.7,1.7,0,0,1-.3-1,1.2,1.2,0,0,1,.6-.8,1.8,1.8,0,0,1,1-.4,2.3,2.3,0,0,1,1.1.2h0V31.6h-.1a5.1,5.1,0,0,1-2-.4.5.5,0,0,1,0-.6c0-.1.1-.1.2-.1h.4l.9.2h.5V29.2h-1.5a.8.8,0,0,1-.1-.3c0-.1.1-.2.1-.3h.3c.1-.1.2-.1.4,0h.7a2.7,2.7,0,0,1,.2-1.1h.8a2.4,2.4,0,0,1,0,1.2l1,.4c0,.1.1.3,0,.4v.2H226l-.3-.2v1.3h0c.2.1.4,0,.6,0h.6l.3.2c.1.1.1.2.1.4l-.2.2-.7.2h-.7a1.9,1.9,0,0,0,.1.8v.9l.9.3a1.8,1.8,0,0,1,.7.5c.1.1.2.2.1.4h-.1c-.2.1-.3.2-.5.1l-.6-.3-.6-.2c-.1.2-.1.4-.3.5l-.5.6a.9.9,0,0,1-.7.3Zm.7-1a1,1,0,0,0,.5-.4v-.3h-1.4l-.2.3v.3h.1l.5.2Z"/><path class="cls-3" d="M233.6,35.3l-1-.2a1.6,1.6,0,0,1-.8-.5c-.2-.2-.4-.4-.4-.6a2,2,0,0,1-.1-.7c.1-.3.1-.5.3-.7l.6-.9-.5-1.2a4.1,4.1,0,0,0-.3-1v-.4h.4c.1.1.2.1.2.2a3.6,3.6,0,0,1,.4,1.1,4.2,4.2,0,0,0,.4,1h0l1.2-.6.8-.3a.2.2,0,0,1,.3,0h.2v.2h-.1c0,.1-.1.1-.2.2l-.8.4-1.1.5-.6.6c-.1.2-.3.4-.3.6a.8.8,0,0,0-.2.6.7.7,0,0,0,.4.6,1.5,1.5,0,0,0,.7.3h2.2V35l-.7.2Z"/><path class="cls-3" d="M242,35.1l-.4-.2-.5-.6H241l-.7.4a1.1,1.1,0,0,1-.8.1.9.9,0,0,1-.6-.4,1.4,1.4,0,0,1-.2-.7V33l.4-1a2.2,2.2,0,0,1,.7-.9l.6-.6a4.1,4.1,0,0,1,.2-2.1h.3l.3.2a5,5,0,0,1,.1,1.5h0l.7-.2.8-.2c.1-.8.2-1.3.2-1.3s.1-.2.2-.4h.5c0,.1.1.1.1.2s0,.6-.1,1.5a3.4,3.4,0,0,1,1.6.5,2.7,2.7,0,0,1,.7.8l.3.8a3.2,3.2,0,0,1,0,1.4,2.5,2.5,0,0,1-.2,1c0,.1-.1.2-.1.3l-.4.7-.3.2a.2.2,0,0,1-.3,0h-.3a.5.5,0,0,1,0-.5l.3-.4a4.3,4.3,0,0,0,.4-.7,2.8,2.8,0,0,0,.1-.9v-.8l-.3-.7-.6-.5-1.2-.2a5.8,5.8,0,0,1-.6,1.7,7.1,7.1,0,0,1-1,1.4,1.5,1.5,0,0,0,.4.6l.4.3v.4l-.2.2C242.3,35.1,242.2,35.2,242,35.1Zm-2-1.2.7-.5h.1a2.4,2.4,0,0,1-.2-.8c0-.3-.1-.5-.1-.8a3.2,3.2,0,0,0-.8.9,3.6,3.6,0,0,0-.2,1c0,.1.1.2.2.3h.3Zm1.9-1.8a2.9,2.9,0,0,0,.6-1.5,2.8,2.8,0,0,0-1.2.4v.2a1.7,1.7,0,0,0,.1.7,2,2,0,0,0,.1.7Z"/><path class="cls-4" d="M204.8,29a7.3,7.3,0,0,1,.6,3.8,9.4,9.4,0,0,1-2.8-.5c-2.6-.8-3.7-2.8-2.3-4.1A3.2,3.2,0,0,1,204.8,29Z"/><path class="cls-5" d="M205.6,35.3h-.4a.7.7,0,0,1-.5-1v-.2a10.5,10.5,0,0,1-4.9-1.7c-1.8-1.2-2.2-3.4-.9-4.8s4.1-1.5,5.6-.7a5.6,5.6,0,0,1,2.4,5.7l2.2-.2c6.7-.9,8.5-4.7,8.7-5s.7-.7,1.2-.5a.8.8,0,0,1,.3,1.1c-.1.2-2.2,4.9-9.9,5.9l-2.9.2a1.4,1.4,0,0,1-.2.7A1,1,0,0,1,205.6,35.3Zm-3.8-7.5a2.1,2.1,0,0,0-1.4.7,1.8,1.8,0,0,0,.6,2.7,8.9,8.9,0,0,0,4.2,1.4c.2-1.9-.4-3.8-1.6-4.4A4.4,4.4,0,0,0,201.8,27.8Z"/><path class="cls-5" d="M280.6,20.2l-1.6-.8h-.7a1.1,1.1,0,0,0-1,.5,5.7,5.7,0,0,1-3.9,2c-5.7.1-4.2-6.5-3.7-8.2a6.4,6.4,0,0,1,5.2-3.9c1.9-.3,3,.5,3,1.7s-1.1,1.9-2.9,2.3a18.5,18.5,0,0,1-2.3.4c-.5,0-1.5.1-1.4,2s1.5,1.7,1.5,1.7c5.7.3,8.5-2.7,8.8-6.6s-2.2-5.4-6.3-5.4c-5.7.1-9.6,3.7-10.1,9.8s1.8,9.7,7.8,9.9c3.6-.1,6.2-1.3,7.9-3.9a.8.8,0,0,0,.2-.5A.9.9,0,0,0,280.6,20.2ZM176,5.7A7.6,7.6,0,0,0,170.1,8c-.6-1.5-2-2.3-4.3-2.3s-4.4.8-5.2,2.3V7c0-.9-.6-1.3-1.8-1.3h-1c-1.2,0-1.9.4-2,1.3l-1.8,17.3c0,.9.4,1.3,1.5,1.3h1.1c1.2,0,1.6-.4,1.8-1.3s.6-6.9,1-9.1,1.7-5.1,4.4-5.2,2.7,1.9,2.3,5.7l-.9,8.6c0,.9.5,1.3,1.6,1.3H168c1.2,0,1.7-.4,1.9-1.3l.8-8.7c.6-4.4,2.1-5.6,3.8-5.6s2.4,1.9,2,5.7l-.9,8.6c0,.9.5,1.3,1.6,1.3h1.1c1.2,0,1.8-.4,1.9-1.3L181,15C181.7,8.8,179.7,5.7,176,5.7Zm37.7-.1h-2.8l.3-2.6c0-.9-.5-1.4-1.7-1.4h-.8A1.5,1.5,0,0,0,207,3l-.3,2.6h-1.9A1.4,1.4,0,0,0,203.6,7v.4c0,.9.3,1.3,1,1.4h1.9l-1,10.7c-.3,4,1.2,6,5.2,6h1.8c.7-.2,1.2-1.1,1.4-2.6h0c.1-1.2-.3-1.8-1.3-1.8h-.3l-1.3.2c-1,0-1.4-.6-1.3-1.8l1.1-10.5h2.6c.7-.1,1.1-.5,1.2-1.4V7C214.7,6.2,214.4,5.7,213.7,5.6Zm11.2,2.5c-5,.1-7.8,3-8.5,8.7s1.7,8.6,6.8,8.7,7.8-3,8.5-8.7S229.9,8.2,224.9,8.1Zm2.9,8.8c-.4,3.4-2,5.2-4.2,5.2s-3.5-1.8-3.2-5.2,2.1-5.2,4.2-5.2S228.1,13.5,227.8,16.9Zm-27.3,5.3h-.3a1.1,1.1,0,0,1-.8-.2.6.6,0,0,1-.3-.6v-.6c0-.2.1-.8.1-1.3l1.4-10.7a.9.9,0,0,0-1-.9h-1.1a1.5,1.5,0,0,0-1.4.8c-.1.4-.5,2.6-.5,2.6a3.6,3.6,0,0,0-1.3-1.6,5.7,5.7,0,0,0-2.6-.9,7.2,7.2,0,0,0-3.1.5,6,6,0,0,0-2.1,1.4,6.5,6.5,0,0,0-1.5,1.8,9.9,9.9,0,0,0-.9,2.4,10.1,10.1,0,0,0-.5,2.5,12.2,12.2,0,0,0,.1,2.7,4.6,4.6,0,0,0,.6,2.3,5.2,5.2,0,0,0,1.2,1.7,3.9,3.9,0,0,0,1.7,1.1,5.4,5.4,0,0,0,2.2.4,7.1,7.1,0,0,0,2.8-.6,7.3,7.3,0,0,0,1.8-1.3l.7-.7c.1,0,.3.4.5,1a2.4,2.4,0,0,0,.8.8,2.6,2.6,0,0,0,1.9.7H200a1.5,1.5,0,0,0,1.2-1.1l.2-1.2A.8.8,0,0,0,200.5,22.2Zm-5.3-3.9c-.7,2.3-2.9,4-4.6,3.7a3,3,0,0,1-2.3-1.9,6.1,6.1,0,0,1,0-3.8c.7-2.5,2.8-4.2,4.6-3.7S195.9,16.2,195.2,18.3ZM256.5,5.7A7.6,7.6,0,0,0,250.6,8c-.6-1.5-2-2.3-4.3-2.3s-4.3.8-5.2,2.3V7c0-.9-.6-1.3-1.8-1.3h-1c-1.2,0-1.9.4-2,1.3l-1.8,17.3c0,.9.4,1.3,1.6,1.3h1c1.2,0,1.6-.4,1.8-1.3s.6-6.9,1-9.1,1.7-5.1,4.4-5.2,2.7,1.9,2.4,5.7l-.9,8.6c-.1.9.4,1.3,1.6,1.3h1c1.2,0,1.7-.4,1.9-1.3l.9-8.7c.5-4.4,2-5.6,3.8-5.6s2.3,1.9,2,5.7l-.9,8.6c-.1.9.4,1.3,1.6,1.3h1c1.2,0,1.8-.4,2-1.3l.8-9.3C262.2,8.8,260.2,5.7,256.5,5.7Z"/></g></g></svg>