<svg xmlns="http://www.w3.org/2000/svg" xmlns:xlink="http://www.w3.org/1999/xlink" version="1.1" id="rsttop_magazine_logo" preserveAspectRatio="none" x="0px" y="0px" width="240px" height="80px" viewBox="60 -20 240 80" enable-background="new 60 -20 240 80" xml:space="preserve"><script xmlns=""/>
<g>
	<path fill="#231815" d="M200.4,8.9h3.1c0.3,0,0.6-0.3,0.6-0.6V5c0-0.3-0.3-0.6-0.6-0.6h-3.1c-0.3,0-0.6,0.3-0.6,0.6v3.2   C199.8,8.6,200.1,8.9,200.4,8.9z"/>
	<path fill="#231815" d="M206.7,8.9h3.1c0.3,0,0.6-0.3,0.6-0.6V5c0-0.3-0.3-0.6-0.6-0.6h-3.1c-0.3,0-0.6,0.3-0.6,0.6v3.2   C206.1,8.6,206.4,8.9,206.7,8.9z"/>
	<path fill="#231815" d="M197,11.4c-0.3-0.3-0.7-0.4-1-0.4h-0.4h-9.9c-0.3,0-0.6,0.3-0.6,0.6v9.3c0,0.3,0.3,0.6,0.6,0.6h3.7   c0.3,0,0.6-0.3,0.6-0.6c0-1,0-3,0-4.7c0-0.2,0.2-0.3,0.4-0.3c1.6,0,3,0,4,0c0.2,0,0.4,0.1,0.5,0.2c2,2,12.6,12.6,15,15   c0.2,0.2,0.6,0.3,0.9,0l2.1-3.1c0.2-0.2,0.2-0.6,0-0.9L197,11.4z"/>
	<path fill="#231815" d="M163.2-5c-0.3-0.2-0.7-0.4-1.1-0.4H162h-8.3c-0.4,0-0.8,0.1-1.1,0.4L138,6.2c-0.3,0.2-0.3,0.6-0.1,0.9   l1.9,2.4c0.2,0.3,0.6,0.3,0.8,0.1c0.7-0.5,2.1-1.6,3.8-2.9v10.4v5.1v7.5c0,0.3-0.3,0.6-0.6,0.6c-0.4,0-0.7,0-1,0   c-0.2,0-0.4,0.1-0.4,0.3v3.7c0,0.2,0.1,0.3,0.3,0.3h8.3c0.2,0,0.4,0,0.6-0.1l4.9-1.8c0.2-0.1,0.2-0.2,0.2-0.4l-1.3-3.4   c-0.1-0.2-0.2-0.2-0.4-0.2c-0.8,0.3-2.9,1.1-4,1.5c-0.4,0.1-0.8,0.2-1.2,0.2c-0.2,0-0.4,0-0.6,0c-0.3,0-0.6-0.3-0.6-0.6v-6.9   c0-0.3,0.3-0.6,0.6-0.6h7.3c0.4,0,0.8,0.2,1,0.5l9.2,11.7c0.1,0.2,0.3,0.2,0.5,0.2h7.7c0.2,0,0.3-0.1,0.3-0.3v-3.7   c0-0.2-0.2-0.3-0.4-0.3c-1,0-3.7,0-5.3,0c-0.4,0-0.7-0.1-0.9-0.4c-0.2-0.2-0.3-0.4-0.5-0.7c-0.2-0.2-0.1-0.6,0.2-0.7l2.4-1   c0.2-0.1,0.2-0.2,0.2-0.4c0,0-1.6-3.6-1.8-3.6l-3.6,1.4c-0.3,0.1-0.7,0-0.9-0.2c-0.6-0.7-1.1-1.4-1.6-2.1c-0.2-0.2,0-0.5,0.3-0.5   h7.8c0.2,0,0.3-0.1,0.3-0.3V6.7c1.6,1.2,3,2.3,3.7,2.8c0.3,0.2,0.7,0.2,0.9-0.1l1.9-2.4c0.2-0.3,0.2-0.7-0.1-0.9L163.2-5z    M167.1,17.3c0,0.3-0.3,0.6-0.6,0.6c-3.6,0-13.5,0-17.2,0c-0.3,0-0.6-0.3-0.6-0.6c0-0.1,0-0.1,0-0.2c0-0.2,0-0.4,0-0.6   c0-0.3,0.3-0.6,0.6-0.6h17.2c0.4,0,0.6,0.3,0.6,0.7C167.1,16.8,167.1,17,167.1,17.3z M167.1,11c0,0.3-0.3,0.6-0.6,0.6h-17.3   c-0.3,0-0.6-0.3-0.6-0.6c0-0.3,0-0.5,0-0.8s0.3-0.6,0.6-0.6c3.6,0,13.5,0,17.2,0c0.3,0,0.6,0.2,0.6,0.6   C167.1,10.5,167.1,10.7,167.1,11z M169.2,5.4h-8.6c-0.3,0-0.6-0.3-0.6-0.6V4c0-0.2-0.1-0.3-0.3-0.3H156c-0.2,0-0.3,0.1-0.3,0.3v0.8   c0,0.3-0.3,0.6-0.6,0.6h-9c3.3-2.5,7-5.3,8.1-6.2c0.2-0.1,0.4-0.2,0.6-0.2c1.3,0,4.7,0,6.1,0c0.2,0,0.4,0,0.6,0.2   c1.1,0.8,4.8,3.7,8.1,6.3h-0.4V5.4z"/>
	<g>
		<g>
			<path fill="#E83D5B" d="M205.2,53.1c-0.3,0-0.6-0.1-0.8-0.3c-0.2-0.2-0.3-0.4-0.3-0.6s0-0.6,0.6-2.1c0.8-2.4,1.5-4.1,1.9-5.2     c2.3-5.4,5.2-10.5,8.5-15.3c1.4-2,2.4-3.3,2.9-4c0.6-0.7,1.2-1.1,1.7-1.1l0,0c0.4,0,0.7,0.1,1,0.4c0.4,0.3,0.6,0.7,0.6,1.1     c0,0.5-0.2,1.1-0.7,2.1c-1.3,2.5-2.5,5.3-3.5,8.4c-0.6,1.8-1,3.4-1.3,4.8c0.4-0.7,0.8-1.5,1.4-2.5c1.1-2,2.9-4.9,5.3-8.6     c1.4-2.2,2.7-4,3.9-5.5c0.8-1,1.5-1.5,2.2-1.6l0,0c0.5,0,0.9,0.1,1.2,0.4c0.3,0.2,0.4,0.6,0.5,1c0,0.5-0.2,1.2-0.7,2.2     c-0.1,0.2-0.5,1.1-1.3,2.8c-1.4,3-2.4,5.1-2.9,6.4c-1.4,3.5-2.3,6.4-2.9,8.8c-0.3,1.4-0.5,2.4-0.4,3.1c0,0.1,0,0.3,0.1,0.4     c0.1,0.7,0.2,0.8,0.2,0.9c0,0.5-0.1,0.9-0.4,1.3c-0.3,0.4-0.6,0.6-1.1,0.6l0,0c-0.4,0-0.9-0.1-1.3-0.7c-0.2-0.3-0.4-0.8-0.4-1.5     c-0.2-3.2,1.6-9,5.7-17.8c-2.1,3.1-4.4,6.9-6.7,11.4c-0.8,1.4-1.4,2.4-1.9,2.9c-0.6,0.6-1.1,0.9-1.7,0.9l0,0     c-0.7,0-1.1-0.2-1.4-0.7c-0.2-0.3-0.3-0.7-0.3-1.1c-0.2-2.7,0.8-6.6,3.1-11.9c-0.4,0.6-0.7,1.1-1.1,1.8c-1.9,3.2-3.5,6.5-4.9,9.9     c-0.7,1.6-1.5,3.8-2.4,6.5C206.9,52.2,206.2,53,205.2,53.1L205.2,53.1z"/>
		</g>
		<g>
			<path fill="#E83D5B" d="M233.1,46.8c-0.7,0-1.4-0.3-1.9-0.9c-0.3-0.4-0.5-0.9-0.6-1.4c-0.1,0.1-0.2,0.2-0.3,0.3     c-0.8,0.9-1.6,1.4-2.4,1.4c-0.8,0-1.4-0.4-1.8-1c-0.3-0.4-0.4-0.9-0.4-1.5c0-1.3,0.4-2.7,1.2-4.2c0.9-1.7,2-3,3.3-3.9     c0.9-0.6,1.8-0.9,2.6-0.9c0.6,0,1.1,0.2,1.5,0.5s0.5,0.7,0.5,1.2c0,0.3-0.1,0.6-0.2,1c0.1,0.2,0.2,0.4,0.2,0.6     c0,0.3-0.2,0.7-0.5,1.3c-0.3,0.5-0.6,1.2-0.9,2.1c-0.3,0.9-0.5,1.6-0.5,2.1c0,0.3,0.1,0.6,0.3,0.8l0,0c0,0,0.1,0.1,0.6,0.3     c0.4,0.2,0.7,0.6,0.7,1.1c0,0.3-0.1,0.6-0.4,0.8C233.8,46.7,233.5,46.8,233.1,46.8z M232.3,37.3c-0.7,0-1.5,0.7-2.4,2     c-1,1.5-1.6,2.8-1.6,3.8c0,0.2,0.1,0.3,0.1,0.4c0,0,0,0,0.1,0c0.2,0,0.7-0.1,1.5-1.5c0.4-0.6,0.9-1.5,1.5-2.7     c0.4-0.8,0.7-1.3,0.9-1.6c0.1-0.1,0.2-0.2,0.3-0.3l-0.1-0.1C232.4,37.3,232.4,37.3,232.3,37.3z"/>
		</g>
		<g>
			<path fill="#E83D5B" d="M233.5,56.3c-0.9,0-1.6-0.4-2-1.1c-0.2-0.4-0.3-0.9-0.3-1.4c0-2,1.3-3.8,3.8-5.6c0.4-0.3,1.9-1.1,4.6-2.6     c0.1-0.2,0.2-0.4,0.3-0.6c-0.7,0.5-1.3,0.7-1.8,0.7s-1.1-0.2-1.6-1c-0.2-0.4-0.3-0.8-0.3-1.2c0-0.9,0.4-2,1.1-3.4     c1-1.9,2.3-3.5,3.7-4.6c1.3-1,2.4-1.5,3.4-1.5c0.6,0,1.1,0.2,1.5,0.6c0.3,0.3,0.5,0.7,0.5,1.3c0,0.5-0.2,1.2-0.5,1.9     c0.2,0.3,0.3,0.5,0.3,0.7s-0.1,0.4-0.3,0.6c-0.3,0.4-0.8,1.2-1.5,2.4c-0.3,0.5-0.6,1-0.8,1.5c0.5-0.5,1-0.9,1.3-1.3     c0.9-1.1,1.5-1.9,1.9-2.6c0.3-0.5,0.6-0.7,1-0.7c0.5,0,0.9,0.3,0.9,0.8c0,0.4-0.2,1-0.7,1.8c-1.4,2.2-3.6,4.2-6.4,5.9     c-1.3,2.6-2.2,4.4-2.9,5.3C236.8,55,235.2,56.3,233.5,56.3z M237.8,49c-1,0.6-2,1.3-2.8,2.3c-0.5,0.6-0.9,1.2-1.1,1.8     c-0.1,0.2-0.1,0.3-0.1,0.4s0,0.1,0,0.2c0.1,0.1,0.1,0.1,0.2,0.1c0.3,0,1-0.3,2.2-2.1C236.8,50.7,237.3,49.8,237.8,49z      M243.6,36.8c-0.2,0-0.7,0.1-1.9,1.3c-1.1,1.1-2,2.3-2.6,3.6c-0.4,0.8-0.4,1.2-0.4,1.4c0,0.1,0,0.2,0,0.2c0.2,0,0.6-0.1,1.5-1.1     c0.5-0.5,0.9-1,1.2-1.5c0.1-0.1,0.1-0.2,0.2-0.2c-0.1-0.2-0.2-0.3-0.2-0.4c0-0.3,0.2-0.6,0.4-0.7c0.6-0.5,1-1.1,1.4-1.6     C243.6,37.2,243.6,36.9,243.6,36.8L243.6,36.8z"/>
		</g>
		<g>
			<path fill="#E83D5B" d="M255.6,46.8c-0.7,0-1.4-0.3-1.9-0.9c-0.3-0.4-0.5-0.9-0.6-1.4c-0.1,0.1-0.2,0.2-0.3,0.3     c-0.8,0.9-1.6,1.4-2.4,1.4c-0.8,0-1.4-0.4-1.8-1c-0.3-0.4-0.4-0.9-0.4-1.5c0-1.3,0.4-2.7,1.2-4.2c0.9-1.7,2-3,3.3-3.9     c0.9-0.6,1.8-0.9,2.6-0.9c0.6,0,1.1,0.2,1.5,0.5s0.5,0.7,0.5,1.2c0,0.3-0.1,0.6-0.2,1c0.1,0.2,0.2,0.4,0.2,0.6     c0,0.3-0.2,0.7-0.5,1.3c-0.3,0.5-0.6,1.2-0.9,2.1c-0.3,0.9-0.5,1.6-0.5,2.1c0,0.3,0.1,0.6,0.3,0.8l0,0c0,0,0.1,0.1,0.6,0.3     c0.4,0.2,0.7,0.6,0.7,1.1c0,0.3-0.1,0.6-0.4,0.8C256.2,46.7,255.9,46.8,255.6,46.8z M254.7,37.3c-0.7,0-1.5,0.7-2.4,2     c-1,1.5-1.6,2.8-1.6,3.8c0,0.2,0.1,0.3,0.1,0.4c0,0,0,0,0.1,0c0.2,0,0.7-0.1,1.5-1.5c0.4-0.6,0.9-1.5,1.5-2.7     c0.4-0.8,0.7-1.3,0.9-1.6c0.1-0.1,0.2-0.2,0.3-0.3l-0.1-0.1C254.9,37.3,254.8,37.3,254.7,37.3z"/>
		</g>
		<g>
			<path fill="#E83D5B" d="M259.4,46.5c-0.4,0-0.7-0.2-1-0.4c-0.4-0.3-0.5-0.6-0.5-0.9c0-0.4,0.1-1.1,1.4-3c1.2-1.6,2.5-3,3.8-4.2     c-0.5,0-0.9,0-1.2,0c-1.8-0.1-2.1-1-2.2-1.5c0-0.3,0.1-0.6,0.2-0.8c0.2-0.2,0.4-0.3,0.7-0.3c0.1,0,0.3,0,1,0.2     c0.1,0,0.3,0.1,0.8,0.1c0.9,0.1,1.8,0,2.7-0.1c0.9-0.1,1.5-0.1,2,0.4c0.2,0.2,0.4,0.5,0.4,0.9c0,0.5-0.3,1-1,1.5     c-1.7,1.3-2.9,2.4-3.5,3.1c-0.6,0.7-1.1,1.3-1.5,1.9c0.6-0.1,1.2-0.1,1.7-0.1c2,0.1,2.5,0.9,2.5,1.6c0,0.3-0.1,0.6-0.3,0.8     c-0.2,0.2-0.5,0.4-0.8,0.3c-0.1,0-0.3,0-0.9-0.2c-0.2-0.1-0.4-0.1-0.6-0.1c-0.9-0.1-1.7,0.1-2.5,0.4     C259.9,46.4,259.6,46.5,259.4,46.5z"/>
		</g>
		<g>
			<path fill="none" d="M291.1,39.7c0.2-0.1,0.5-0.4,0.7-0.6c0.3-0.4,0.5-0.8,0.8-1.2c0.4-0.8,0.3-1.3,0.3-1.3c-0.3,0.2-0.8,0.7-1,1     c-0.4,0.7-0.6,1.3-0.7,1.7C291.1,39.5,291.1,39.6,291.1,39.7z"/>
			<path fill="#E83D5B" d="M272,33c0.1,0,0.3,0.1,0.4,0.1c0.2,0,0.3,0,0.5,0c0.5,0,0.9-0.3,1.1-0.6c0.1-0.2,0.2-0.3,0.2-0.5     s0.1-0.4,0.1-0.5c0-0.2,0-0.3-0.1-0.5c-0.1-0.1-0.2-0.3-0.3-0.3c-0.1-0.1-0.3-0.1-0.5-0.1c-0.3,0-0.8,0-1.1,0.3     c-0.2,0.1-0.3,0.3-0.4,0.5s-0.2,0.4-0.3,0.6c-0.1,0.2-0.1,0.4-0.1,0.6c0,0.2,0.1,0.3,0.2,0.4C271.7,32.9,271.8,33,272,33z"/>
			<path fill="#E83D5B" d="M298.8,38.8c-0.1-0.3-0.3-0.4-0.5-0.4c-0.4,0-0.9,0.4-1.2,0.7l-0.5,0.5c-0.4,0.4-0.8,0.8-1.2,1.3     c-0.4,0.4-0.8,0.8-1.2,1.1c-0.2,0.2-0.5,0.4-0.7,0.5c-0.3,0.2-0.5,0.3-0.8,0.5c-0.3,0.1-0.5,0.2-0.8,0.3c-0.4,0.1-0.7,0.1-1,0     c-0.1,0-0.2-0.1-0.2-0.2c-0.1-0.1-0.1-0.2-0.1-0.3s0-0.1,0-0.2l0.8-0.7c0.3-0.3,0.6-0.5,0.8-0.7c0.7-0.7,1.3-1.4,1.8-2.1     c0.5-0.7,0.8-1.4,0.9-2c0.1-0.3,0.1-0.7,0.1-1s-0.1-0.6-0.2-0.9c-0.1-0.3-0.3-0.5-0.5-0.7c-0.4-0.3-1-0.4-1.6-0.1     c-0.2,0.1-0.5,0.2-0.7,0.3c-0.2,0.1-0.4,0.3-0.6,0.5s-0.4,0.4-0.5,0.5c-0.4,0.5-0.7,1-1,1.5c-0.3,0.5-0.6,1-0.8,1.5     c-0.1,0.3-0.2,0.6-0.3,0.9c-0.4,0.4-0.8,0.9-1.2,1.3c-0.4,0.4-0.8,0.8-1.2,1.1c-0.4,0.3-0.7,0.5-1,0.7c-0.2,0.1-0.5,0.2-0.7,0.2     c-0.1-0.1-0.1-0.3-0.1-0.5s0-0.5,0-0.8s0-0.6,0.1-0.9c0.1-0.6,0.1-1.1,0.1-1.6s0-1-0.1-1.4s-0.2-0.8-0.5-1     c-0.5-0.5-1.4-0.5-2.2-0.2c-0.3,0.2-0.6,0.3-0.9,0.6c-0.3,0.2-0.5,0.5-0.8,0.8c-0.2,0.3-0.5,0.6-0.7,1c-0.1,0.2-0.3,0.4-0.5,0.6     v-0.1c0.1-0.2,0.2-0.5,0.2-0.6l0.2-0.5c0.1-0.2,0.1-0.4,0.2-0.5c0.1-0.2,0.1-0.4,0.1-0.6c0-0.2,0.1-0.4,0-0.6     c0-0.2,0-0.4-0.1-0.5c-0.1-0.2-0.1-0.3-0.3-0.4c-0.2-0.2-0.5-0.2-0.8-0.1c-0.2,0-0.3,0.1-0.5,0.2c-0.1,0.1-0.3,0.2-0.4,0.3     c-0.1,0.1-0.3,0.3-0.4,0.6c-0.1,0.2-0.2,0.4-0.3,0.6c0,0-0.1,0-0.1,0.1c-0.1,0.1-0.2,0.1-0.2,0.2c-0.1,0.1-0.1,0.1-0.2,0.2     c0,0.1-0.1,0.1-0.1,0.1c-0.2,0.2-0.4,0.4-0.6,0.7c-0.3,0.3-0.5,0.6-0.8,0.9c-0.3,0.3-0.6,0.6-0.9,0.9c-0.3,0.3-0.5,0.5-0.8,0.7     c-0.6,0.6-1.2,1-1.7,1.4c-0.3,0.2-0.5,0.2-0.5,0.3c-0.1,0-0.3,0.1-0.4,0c-0.1-0.1-0.1-0.3-0.1-0.6s0-0.6,0-0.9     c0-0.4,0.1-0.7,0.1-1.1c0.1-0.3,0.1-0.7,0.2-1.2c0.1-0.4,0.2-0.9,0.4-1.5c0.1-0.3,0.2-0.6,0.3-0.9c0.1-0.3,0.2-0.6,0.2-0.9     c0.2-1.2-0.4-1.3-0.7-1.3c-0.5,0-1,0.2-1.4,0.6c-0.4,0.4-0.7,0.8-0.9,1.3c-0.1,0.2-0.2,0.5-0.3,0.8c-0.1,0.3-0.2,0.7-0.3,1     c-0.1,0.4-0.2,0.7-0.3,1c-0.1,0.3-0.1,0.6-0.2,0.7c-0.1,0.4-0.1,0.9-0.2,1.3c-0.1,0.5-0.1,0.9-0.1,1.4s0,0.9,0.1,1.3     c0.1,0.4,0.2,0.8,0.3,1.2c0.2,0.4,0.4,0.6,0.7,0.9c0.3,0.2,0.7,0.3,1.2,0.3c0.4,0,0.9-0.1,1.3-0.4c0.4-0.2,0.9-0.6,1.4-1     s0.9-0.8,1.3-1.2c0.4-0.4,0.8-0.9,1.2-1.3l0,0c-0.1,0.3-0.1,0.6-0.2,0.8c-0.3,1.8-0.1,2.9,0.8,3.2l0.2,0.1l0.2-0.1     c0.2-0.1,0.5-0.3,0.8-0.6c0.3-0.2,0.5-0.5,0.8-0.8c0.3-0.3,0.5-0.6,0.8-1c0.3-0.3,0.5-0.6,0.7-0.9c0.5-0.7,0.9-1.4,1.3-1.8     c0.3-0.4,0.6-0.8,0.7-1c0.1-0.1,0.2-0.2,0.2-0.3c0,0,0,0.1,0,0.2c0,0.4,0,1-0.1,1.7c0,0.5-0.1,1.1-0.1,1.6s0.1,1,0.2,1.4     c0.1,0.4,0.3,0.8,0.6,1.1c0.5,0.5,1.4,0.5,2.1,0.3c0.3-0.1,0.5-0.2,0.8-0.3c0.2-0.1,0.5-0.3,0.7-0.5c0.2-0.2,0.4-0.3,0.7-0.5     s0.6-0.5,0.9-0.9c0.1-0.1,0.2-0.2,0.3-0.3c0,0.6,0.1,1.1,0.3,1.5c0.4,0.8,1.1,1.2,2.1,1.2c0.4,0,0.9-0.1,1.3-0.3     c0.4-0.2,0.9-0.4,1.4-0.7s0.9-0.6,1.4-1s0.9-0.8,1.3-1.3s0.9-0.9,1.3-1.4c0.4-0.5,0.8-1,1.2-1.6c0.3-0.5,0.3-0.7,0.4-0.8     C298.8,39.1,298.8,38.9,298.8,38.8z M291.9,37.7c0.3-0.4,0.7-0.9,1-1c0,0,0.1,0.5-0.3,1.3c-0.2,0.4-0.4,0.8-0.8,1.2     c-0.3,0.3-0.5,0.5-0.7,0.6c0-0.1,0-0.2,0.1-0.4C291.3,39,291.4,38.4,291.9,37.7z"/>
		</g>
	</g>
	<path fill="#231815" d="M249.4,5.3h-2.1h-22.8c-0.2,0-0.3,0.1-0.3,0.3V23c0,0,0.8-1.4,2.3-2.1c1.3-0.6,2.6-0.5,2.6-0.5   c0-3.7,0-7.1,0-9.5c0-0.4,0.3-0.7,0.6-0.7c3.5,0,11.1,0,14.5,0c0.3,0,0.6,0.3,0.6,0.6c0,3.5,0,11.5,0,15.1c0,0.3-0.2,0.7-0.6,0.7   c-2.5,0-8.5,0-12.2,0l-2.1,4.9h19.4c0.2,0,0.3-0.1,0.3-0.3V5.6C249.7,5.4,249.5,5.3,249.4,5.3z"/>
	<path fill="#231815" d="M279.2,1.2h3.1c0.3,0,0.6-0.3,0.6-0.6v-3.2c0-0.3-0.3-0.6-0.6-0.6h-3.1c-0.3,0-0.6,0.3-0.6,0.6v3.2   C278.6,0.9,278.9,1.2,279.2,1.2z"/>
	<path fill="#231815" d="M288.5-3.2h-3c-0.3,0-0.6,0.3-0.6,0.6v3.2c0,0.3,0.3,0.6,0.6,0.6h3c0.3,0,0.6-0.3,0.6-0.6v-3.2   C289.2-2.9,288.9-3.2,288.5-3.2z"/>
	<path fill="#231815" d="M284.6,5.1h-1.8h-15.3c-0.2,0-0.3-0.1-0.3-0.3V4.2c0-0.3-0.3-0.6-0.6-0.6h-3.7c-0.3,0-0.6,0.3-0.6,0.6   c0,1.8,0,5.2,0,6.8c0,0.2-0.1,0.4-0.2,0.5c-0.6,0.8-1.6,2.2-2.1,2.9c-0.2,0.3-0.1,0.6,0.2,0.8l3,2.1c0.3,0.2,0.7,0.1,0.8-0.1   l2.8-3.9c0.2-0.3,0.4-0.7,0.4-1.1v-1.9c0-0.2,0.2-0.3,0.4-0.3c3.6,0,9.8,0,12.5,0c0.2,0,0.2,0.2,0.2,0.3c0,3.2,0,9.6,0,11.6   c0,0.2-0.1,0.4-0.2,0.6c-1.6,1.6-3.1,3-4.7,4.7c-0.2,0.2-0.2,0.6,0,0.9l2.6,2.6c0.2,0.2,0.6,0.2,0.9,0l5.9-5.9   c0.3-0.3,0.4-0.7,0.4-1V5.7C285.2,5.4,284.9,5.1,284.6,5.1z"/>
	<g>
		<path fill="#231815" d="M129.9,23.8c-0.1-1-0.2-2.1-0.3-3.2c0-0.3-0.2-0.5-0.5-0.5l-7-0.6c-0.2,0-0.4,0.1-0.5,0.2    c-0.1,0.1-0.2,0.3-0.1,0.5c-0.7-0.1-1.3-0.3-1.8-0.5c-1.6-0.7-3.4-2-4.4-4.4c-1-2.3-3.4-6.8-4.3-8.2c-0.7-1-1.1-1.8-2.2-2.5    c-0.2-0.1-0.4-0.2-0.6-0.3l0.1-0.1c1-1.5,1.1-1.7,1.3-2.2c0.2-0.6,0.4-0.9,0.3-1.5c-0.1-0.5-0.4-1-2-1.9c-1.3-0.8-2-1.2-4.6-2.8    c-2.1-1.3-4-2.5-5.4-3.4c-2.4-1.6-6.5-4.4-7.8-5.7c-1.4-1.4-2.2-2.8-3.2-2.5c-1.1,0.2-0.9,1.9-1.6,1.6c-1.3-0.5-3.4-1.8-4.9-2    c-0.8-0.1-1.4,0.4-1.5,0.5c-0.3,0.4-0.8,1.2-0.9,1.5c-0.5,1.6-1.1,2.9-1.8,4.4c-2.6,5.5-4.5,8.6-6.5,11.9l-0.4,0.6    c-1.6,2.7-5.6,8.4-7,10.6c-0.6,1-1.1,1.7-1.1,2.6c0,0.7,0.6,1.3,1.2,1.6c1,0.6,1.9,1.2,2.3,1.4c0.8,0.5,2.7,1.6,3.8,2.3    c4.3,3,6.5,4.4,10.6,8.3c1.2,1.1,3.8,3.7,4.8,4.2c2.5,1.2,4.1-0.3,5.2-1.4l0.4-0.5c0.4-0.5,3.1-4.6,6.4-9.5    c0.2,0.1,0.4,0.1,0.6,0.2c0.5,0.2,1,0.7,1.4,1.1c0.7,0.9,2.2,2.6,3.9,4.1s3.5,2.9,4.9,3.4c2.4,0.7,5.9,2.2,11,2.4c0,0,0,0,0.1,0    c0,0.1,0,0.1,0,0.2c0,0.2,0.2,0.4,0.4,0.5l7.5,2.2c0.1,0,0.1,0,0.2,0s0.1,0,0.2-0.1C126.3,36.3,130.5,34,129.9,23.8z M95.1,8.1    c-1.6-0.5-3.4-1.1-4.3-1.5c-0.4-0.2-0.9-0.3-1.4-0.3l0,0c-0.5,0-1,0.2-1.4,0.4c-0.3-0.2-0.5-0.4-0.7-0.5C84.1,4,79.7,1,79.7,1    l3.2-6.6l14.8,9.7L95.1,8.1z M101.3,10.7L101.3,10.7c-0.6-0.3-1.3-0.8-1.3-0.8l0,0c-0.1-0.1-0.4-0.2-0.7-0.4    c-0.4-0.2-1-0.5-1.7-0.7c-0.2-0.1-0.4-0.1-0.7-0.2l2.3-3.8c0.5-0.7,0.3-1.7-0.4-2.2l-15.2-10c-0.7-0.5-1.7-0.3-2.2,0.4l-3.5,7.2    c-0.5,0.7-0.3,1.7,0.4,2.2c0,0,4.9,3.3,8.2,5.6c0,0,0,0,0.1,0c-0.3,0.5-0.4,1.1-0.3,1.7v0.1l0,0v0.1V10c0.1,0.2,0.1,0.5,0.2,0.7    v0.1v0.1c0.3,0.9,1,2.1,2.8,2.8c1,0.4,2.9,1.3,4.6,2.1c0.4,0.2,1.2,0.5,2,0.9c0.3,0.1,0.5,0.3,0.8,0.4c-2.4,3.5-4.8,6.9-6.6,9.5    c-0.8,1.2-1.6,2.5-2.2,3.2c-0.7,1-0.9,1.2-1.1,1.4c-0.7,0.8-1.2,0.8-1.9,0.6C84,31.5,81.4,29,80,27.6c-2.3-2.2-4.1-3.6-5.8-5    c-1.9-1.5-6.8-4.8-9.4-6.4c-0.7-0.4-1.4-0.8-1.4-0.8c0.2-0.3,0.5-0.9,0.9-1.6c1.7-2.6,5.7-8.5,7.2-11l0.4-0.6    c2-3.3,3.5-5.8,6.6-12.3c0.6-1.3,1.3-3.3,1.8-4.4c1.3,0.5,2.9,1.2,3.7,1.6c2.6,1.3,4.5,2.8,7.6,5.1c1.7,1.3,3.5,2.6,5.8,4    c4.2,2.6,7.2,4.3,10,5.2C106.4,3.2,104.1,6.7,101.3,10.7z M119,32.5c-0.3-0.1-0.6-0.1-0.8-0.2c-0.1,0-0.2,0-0.2,0h-0.1    c-4-0.1-6.9-1.1-9.2-1.8c-0.7-0.3-1.2-0.5-1.7-0.6c-0.9-0.2-2.6-1.5-4.4-3.1c-1.7-1.5-3.2-3.1-3.8-4c-0.2-0.2-0.4-0.4-0.6-0.6    c-0.1-0.1-0.9-0.8-1.6-1h-0.1l1.9-2.7c0.2,0.2,0.4,0.4,0.6,0.7c0.9,1,1.3,1.7,1.5,2.4c0,0.1,0.1,0.2,0.1,0.3    c0.5,1.1,1.3,2.4,2.4,3.7c1.6,1.9,3.1,3,4.6,3.5c0.1,0,0.2,0,0.2,0c0.3,0,0.5-0.2,0.6-0.5c0.1-0.4-0.1-0.7-0.4-0.8    c-1.2-0.4-2.7-1.5-4-3.1c-1.2-1.5-2.1-3-2.3-3.9c-0.6-2-2.5-3.3-3.6-4c-0.2-0.1-0.4-0.2-0.5-0.3c-0.5-0.3-1.6-0.9-3.2-1.7    c-1.3-0.6-3-1.4-4.7-2.2c-1.3-0.6-1.9-1.5-2.1-2.1c0-0.3-0.1-0.5-0.2-0.8l0,0c0-0.6,0.1-1,0.3-1.2c0.3-0.4,0.9-0.8,1.5-0.9    c0.1,0,0.1,0,0.2,0c0.3,0,0.6,0,0.8,0.2c1.2,0.6,3.9,1.4,5.7,1.9c0.5,0.2,1,0.3,1.3,0.4c0.6,0.2,1.1,0.4,1.5,0.6    c0.3,0.2,0.6,0.3,0.6,0.3l0.1,0.1c2.4,1.5,4.2,2.5,5,2.9c0.5,0.3,1.1,0.4,1.6,0.3c1.1-0.1,1.7-0.8,1.9-1c0.1-0.1,0.1-0.3,0.1-0.5    s-0.1-0.3-0.3-0.4c-0.3-0.2-0.7-0.1-0.9,0.1l0,0c0,0-0.3,0.4-0.9,0.4c-0.3,0-0.6-0.1-0.9-0.2c-0.5-0.2-0.8-0.4-1.1-0.6l-0.9-0.5    l0.2-0.3c2-2.8,3.3-4.7,4.2-6c0.7,0.4,1.8,1.2,2.4,2.3c0.2,0.3,0.5,0.9,0.8,1.5c1.1,2,2.7,4.9,3.4,6.6c1.2,3,3.4,4.4,5.1,5    c0.7,0.3,1.5,0.5,2.4,0.6c0.1,0.6,0.2,1.5,0.3,2.5c0.1,1.4,0.1,3.4-0.6,5.2C120.9,30.6,120.1,31.7,119,32.5z M127.2,33.3    c-0.4,0.7-0.8,1.2-1.2,1.6c-0.1,0.1-0.2,0.2-0.3,0.2l-5.9-1.7c1.2-0.9,2.1-2.2,2.6-3.8s0.7-3.5,0.6-5.7c-0.1-1.3-0.2-2.3-0.4-3.1    l5.8,0.5c0.1,0.9,0.2,1.8,0.2,2.6C129,28.9,128,31.8,127.2,33.3z"/>
		<path fill="#231815" d="M72.4,10.4c-0.4-0.4-1-0.2-1.4,0.2c-0.3,0.5-0.2,1.1,0.2,1.4l5.5,3.9c0.5,0.3,1.1,0.2,1.4-0.2    c0.3-0.4,0.2-1.1-0.2-1.4L72.4,10.4z"/>
		<path fill="#231815" d="M73.2,7.3c-0.3,0.5-0.2,1.1,0.3,1.4l11,7.5c0.5,0.3,1.1,0.2,1.4-0.3c0.3-0.5,0.2-1.1-0.3-1.4L74.6,7    C74.1,6.7,73.5,6.9,73.2,7.3z"/>
	</g>
</g>
</svg>