<svg xmlns="http://www.w3.org/2000/svg" viewBox="0 0 289.8 88.5"><script xmlns=""/><defs><style>.cls-1{fill:#231815;}.cls-2{fill:#e83d5b;}.cls-3{fill:none;}</style></defs><title>footer_tabelog_magazine_re1</title><g id="レイヤー_2" data-name="レイヤー 2"><g id="Isolation_Area" data-name="Isolation Area"><rect class="cls-1" x="169.1" y="25.2" width="5.2" height="5.41" rx="0.7"/><rect class="cls-1" x="176.7" y="25.2" width="5.2" height="5.41" rx="0.7"/><path class="cls-1" d="M165.6,33.8a1.6,1.6,0,0,0-1.2-.6H151.7a.8.8,0,0,0-.7.8V45.4a.7.7,0,0,0,.7.7h4.5a.8.8,0,0,0,.8-.7V39.6a.4.4,0,0,1,.4-.4h4.9l.6.3,18.2,18.3a.8.8,0,0,0,1.1,0l2.6-3.7a.8.8,0,0,0,0-1.1Z"/><path class="cls-1" d="M124.4,13.7a2.8,2.8,0,0,0-1.3-.4H112.7a3.3,3.3,0,0,0-1.3.4L93.7,27.3a.8.8,0,0,0-.1,1.1l2.3,2.9a.6.6,0,0,0,1,.2l4.6-3.5V56.1a.8.8,0,0,1-.8.7H99.6a.5.5,0,0,0-.5.4v4.5c0,.2.2.3.4.3h10.8l6-2.2a.4.4,0,0,0,.2-.5L115,55c-.1-.1-.3-.3-.5-.2l-4.8,1.8a3.9,3.9,0,0,1-1.5.2h-.8a.7.7,0,0,1-.7-.7V47.6a.7.7,0,0,1,.7-.7h8.9a1.4,1.4,0,0,1,1.2.6l11.2,14.2a.9.9,0,0,0,.6.3h9.5a.3.3,0,0,0,.3-.3V57.2a.4.4,0,0,0-.4-.4h-6.5a1.6,1.6,0,0,1-1.1-.5l-.7-.9a.7.7,0,0,1,.2-.9l3-1.2a.3.3,0,0,0,.2-.4l-1.7-4.2a.4.4,0,0,0-.5-.2l-4.3,1.8a1.3,1.3,0,0,1-1.2-.3c-.7-.9-1.3-1.8-2-2.6a.4.4,0,0,1,.3-.5H134a.4.4,0,0,0,.4-.4V28l4.5,3.4a.7.7,0,0,0,1.1-.1l2.2-2.9a.8.8,0,0,0-.1-1.1Zm4.8,27.2a.9.9,0,0,1-.8.8H107.5a.8.8,0,0,1-.8-.8V40a.8.8,0,0,1,.7-.8h21a.9.9,0,0,1,.8.8Zm0-7.7a.8.8,0,0,1-.8.8h-21a.7.7,0,0,1-.7-.8v-.9a.7.7,0,0,1,.7-.7h21a.8.8,0,0,1,.8.7Zm2.6-6.8H121.3a.9.9,0,0,1-.8-.8v-1a.4.4,0,0,0-.4-.4h-4.4a.4.4,0,0,0-.4.4v1a.8.8,0,0,1-.7.8h-11l9.8-7.6a1.1,1.1,0,0,1,.8-.3h7.4l.7.2,10,7.7Z"/><path class="cls-2" d="M175.7,84.5a1,1,0,0,1-1-.4,1,1,0,0,1-.3-.8,7.7,7.7,0,0,1,.7-2.6c1-2.9,1.8-5,2.3-6.3a102.8,102.8,0,0,1,10.4-18.6c1.7-2.5,2.9-4.1,3.5-4.9a3.5,3.5,0,0,1,2.1-1.3h0a2,2,0,0,1,1.3.4,2.3,2.3,0,0,1,.8,1.4,6.6,6.6,0,0,1-.9,2.6,74.5,74.5,0,0,0-4.3,10.2,46.5,46.5,0,0,0-1.5,5.9l1.7-3c1.3-2.4,3.5-5.9,6.4-10.5,1.8-2.7,3.4-4.9,4.8-6.7s1.8-1.9,2.7-1.9h0a1.7,1.7,0,0,1,1.4.5,2.4,2.4,0,0,1,.6,1.1,6.7,6.7,0,0,1-.8,2.8l-1.7,3.4c-1.7,3.7-2.9,6.2-3.5,7.8a87.7,87.7,0,0,0-3.5,10.8,12,12,0,0,0-.5,3.7v.5a4.5,4.5,0,0,1,.2,1.1,2,2,0,0,1-.5,1.6,1.7,1.7,0,0,1-1.3.7h0c-.4.1-1-.1-1.5-.9a3,3,0,0,1-.5-1.8c-.3-3.8,2-10.9,6.9-21.6a116.4,116.4,0,0,0-8.2,13.9,16.8,16.8,0,0,1-2.4,3.6,3.7,3.7,0,0,1-2,1.1H187a2,2,0,0,1-1.7-.9,2.3,2.3,0,0,1-.4-1.4c-.3-3.2,1-8,3.7-14.4a14.8,14.8,0,0,0-1.3,2.1,103.3,103.3,0,0,0-6,12c-.8,2-1.8,4.7-3,7.9s-1.5,2.9-2.6,2.9Z"/><path class="cls-2" d="M209.7,76.9a3,3,0,0,1-2.3-1.1,2.9,2.9,0,0,1-.7-1.8l-.4.5a3.9,3.9,0,0,1-3,1.7,2.3,2.3,0,0,1-2.1-1.3,3.5,3.5,0,0,1-.5-1.8,11.2,11.2,0,0,1,1.5-5.1,14.4,14.4,0,0,1,4-4.7,5.4,5.4,0,0,1,3.2-1.1,2.8,2.8,0,0,1,1.8.6,2,2,0,0,1,.6,1.4,7.4,7.4,0,0,1-.2,1.2,2.4,2.4,0,0,1,.2.8,3,3,0,0,1-.7,1.6L210,70.3a7.8,7.8,0,0,0-.6,2.6,1.3,1.3,0,0,0,.4,1h0l.6.3a1.4,1.4,0,0,1,.9,1.3,1.2,1.2,0,0,1-.5,1A1.5,1.5,0,0,1,209.7,76.9Zm-1-11.6q-1.3,0-3,2.4a9,9,0,0,0-1.9,4.7.6.6,0,0,0,.1.4c0,.1,0,.1.1.1s.9-.2,1.9-1.8a26.1,26.1,0,0,0,1.8-3.2,14.6,14.6,0,0,1,1.1-2l.3-.3v-.2Z"/><path class="cls-2" d="M210.2,88.5a2.7,2.7,0,0,1-2.5-1.4,4.2,4.2,0,0,1-.4-1.6c0-2.4,1.6-4.7,4.6-6.8a54.4,54.4,0,0,1,5.6-3.1l.3-.7a4.2,4.2,0,0,1-2.2.8,2,2,0,0,1-1.9-1.2,2.8,2.8,0,0,1-.4-1.5,9.4,9.4,0,0,1,1.3-4.2,18.4,18.4,0,0,1,4.6-5.6,6.9,6.9,0,0,1,4.1-1.8,2.9,2.9,0,0,1,1.9.8,2.3,2.3,0,0,1,.5,1.5,5.6,5.6,0,0,1-.6,2.3,1.2,1.2,0,0,1,.4.8,1.3,1.3,0,0,1-.3.8,19.6,19.6,0,0,0-1.8,2.9,17.4,17.4,0,0,0-1.1,1.8l1.6-1.6a18.4,18.4,0,0,0,2.3-3.1,1.4,1.4,0,0,1,1.2-.8,1,1,0,0,1,1.1,1,4.7,4.7,0,0,1-.9,2.1,22.7,22.7,0,0,1-7.8,7.2,59.2,59.2,0,0,1-3.5,6.5C214.2,86.9,212.2,88.5,210.2,88.5Zm5.2-8.9a13.1,13.1,0,0,0-3.5,2.7,6.4,6.4,0,0,0-1.3,2.2,1.3,1.3,0,0,0-.1.5v.2h.2c.4,0,1.3-.3,2.7-2.5Zm7.1-14.9c-.2,0-.9.1-2.3,1.6a14.7,14.7,0,0,0-3.1,4.4,3.6,3.6,0,0,0-.5,1.7v.3c.2,0,.7-.1,1.8-1.4a11.9,11.9,0,0,0,1.5-1.8l.2-.3a.6.6,0,0,1-.2-.5,1.3,1.3,0,0,1,.5-.9,7.4,7.4,0,0,0,1.6-2,1.7,1.7,0,0,0,.5-1.1Z"/><path class="cls-2" d="M237.1,76.9a3,3,0,0,1-2.3-1.1,2.9,2.9,0,0,1-.7-1.8l-.4.5a3.9,3.9,0,0,1-3,1.7,2.3,2.3,0,0,1-2.1-1.3,3.5,3.5,0,0,1-.5-1.8,11.2,11.2,0,0,1,1.5-5.1,13.3,13.3,0,0,1,4-4.7,5.2,5.2,0,0,1,3.2-1.1,2.8,2.8,0,0,1,1.8.6,2,2,0,0,1,.6,1.4,3.5,3.5,0,0,1-.3,1.2,1.3,1.3,0,0,1,.3.8,3,3,0,0,1-.7,1.6l-1.1,2.5a7.8,7.8,0,0,0-.6,2.6,1.3,1.3,0,0,0,.4,1h0l.6.3a1.4,1.4,0,0,1,.9,1.3,1.2,1.2,0,0,1-.5,1A1.5,1.5,0,0,1,237.1,76.9Zm-1-11.6q-1.3,0-3,2.4a9,9,0,0,0-1.9,4.7.6.6,0,0,0,.1.4c0,.1,0,.1.1.1s.8-.2,1.9-1.8a26.1,26.1,0,0,0,1.8-3.2,14.6,14.6,0,0,1,1.1-2c0-.1.2-.2.3-.3l-.2-.2Z"/><path class="cls-2" d="M241.7,76.5a2.1,2.1,0,0,1-1.2-.5,1.7,1.7,0,0,1-.6-1.1c0-.5.1-1.3,1.8-3.6a28.8,28.8,0,0,1,4.7-5.1h-1.5c-2.2-.2-2.6-1.2-2.7-1.9a1.2,1.2,0,0,1,.3-.9.9.9,0,0,1,.9-.3l1.2.2h.9a12,12,0,0,0,3.3-.2c1.1-.1,1.9-.1,2.5.6a1.2,1.2,0,0,1,.5,1q.1.9-1.2,1.8a39.4,39.4,0,0,0-4.3,3.8l-1.9,2.3h2.1c2.4.2,3,1.1,3.1,1.9a1.2,1.2,0,0,1-.4,1,.8.8,0,0,1-.9.4l-1.2-.2-.7-.2a6,6,0,0,0-3,.5A3.6,3.6,0,0,1,241.7,76.5Z"/><path class="cls-3" d="M280.4,68.3l.9-.8a6.7,6.7,0,0,0,.9-1.4,2.9,2.9,0,0,0,.4-1.6,3.8,3.8,0,0,0-1.2,1.3,5.3,5.3,0,0,0-.9,2A.9.9,0,0,0,280.4,68.3Z"/><path class="cls-2" d="M257,60.1h1.1a1.7,1.7,0,0,0,1.4-.7,1.4,1.4,0,0,0,.2-.7,1.3,1.3,0,0,0,.1-.6c0-.2-.1-.4-.1-.6s-.2-.3-.4-.4h-.6a1.3,1.3,0,0,0-1.3.3l-.5.5a2.5,2.5,0,0,0-.4.7,2,2,0,0,0-.1.7.8.8,0,0,0,.2.5Z"/><path class="cls-2" d="M289.8,67.1a.6.6,0,0,0-.6-.5,2.4,2.4,0,0,0-1.5.9l-.5.6-1.5,1.5a9.3,9.3,0,0,1-1.4,1.4l-.9.7-1,.5-.9.4a2.7,2.7,0,0,1-1.2.1l-.3-.2c0-.1-.1-.2-.1-.4v-.2l1-.9.9-.8a23.2,23.2,0,0,0,2.2-2.5,7.3,7.3,0,0,0,1-2.5,6.2,6.2,0,0,0,.1-1.3,1.6,1.6,0,0,0-.2-1,1.9,1.9,0,0,0-.5-.9,2,2,0,0,0-2-.1l-.8.4-.7.5-.6.7L279,65.3a15.1,15.1,0,0,0-.9,1.8,4.9,4.9,0,0,0-.4,1.1l-1.5,1.5a9.3,9.3,0,0,1-1.4,1.4l-1.2.9a1.2,1.2,0,0,1-.8.1.8.8,0,0,1-.2-.6v-.9c0-.4.1-.8.1-1.1a14.1,14.1,0,0,0,.1-2,4.7,4.7,0,0,0-.1-1.7,3.3,3.3,0,0,0-.5-1.2,2.6,2.6,0,0,0-2.7-.2l-1.1.7-.9,1-.9,1.2-.6.8v-.2l.3-.8.2-.6.3-.7c0-.2.1-.4.1-.7a1.7,1.7,0,0,0,.1-.7c0-.2-.1-.4-.1-.6l-.3-.5a2,2,0,0,0-1.1-.2l-.5.2a1.2,1.2,0,0,0-.5.5,1.5,1.5,0,0,0-.5.6l-.3.8h-.2l-.3.3v.3H263a2.8,2.8,0,0,1-.7.9l-1,1.1-1,1.1-1,.9a14,14,0,0,1-2,1.7l-.6.3h-.5c-.1-.1-.1-.4-.1-.7V70.1c.1-.4.1-.9.2-1.3l.3-1.4a12.1,12.1,0,0,1,.5-1.8l.3-1.2a2.6,2.6,0,0,0,.3-1.1c.3-1.5-.5-1.6-.9-1.6a2.5,2.5,0,0,0-1.7.7A4.2,4.2,0,0,0,254,64a4.1,4.1,0,0,0-.3,1l-.3,1.2-.3,1.3a5.1,5.1,0,0,0-.2.9l-.3,1.6c0,.6-.1,1.1-.1,1.7a8.1,8.1,0,0,0,.1,1.6,5.7,5.7,0,0,0,.4,1.4,2.4,2.4,0,0,0,.9,1.1,2.9,2.9,0,0,0,1.4.4,3.3,3.3,0,0,0,1.6-.5,5.5,5.5,0,0,0,1.7-1.1l1.7-1.5,1.4-1.6h.1a4.4,4.4,0,0,0-.2,1c-.4,2.2-.1,3.5.9,3.8h.4a4.6,4.6,0,0,0,1-.7l1-1,.9-1.1.8-1.1,1.6-2.2a3.1,3.1,0,0,1,.9-1.2l.3-.4v.3a16.4,16.4,0,0,1-.1,2,12.8,12.8,0,0,0-.1,1.9,8.8,8.8,0,0,0,.2,1.7,3.2,3.2,0,0,0,.7,1.3,2.6,2.6,0,0,0,2.6.4l.9-.4.9-.5.8-.7,1.1-1,.4-.4a3.4,3.4,0,0,0,.4,1.8,2.8,2.8,0,0,0,2.6,1.4,3.4,3.4,0,0,0,1.6-.4l1.7-.8,1.7-1.3,1.6-1.5,1.6-1.8,1.4-1.9a2.7,2.7,0,0,0,.4-1Zm-8.4-1.3a3.8,3.8,0,0,1,1.2-1.3,2.9,2.9,0,0,1-.4,1.6,6.7,6.7,0,0,1-.9,1.4l-.9.8a.9.9,0,0,1,.1-.5A5.3,5.3,0,0,1,281.4,65.8Z"/><path class="cls-1" d="M229.5,26.3H199.1a.4.4,0,0,0-.4.4V47.9a8.6,8.6,0,0,1,2.8-2.6,6.2,6.2,0,0,1,3.2-.6V33a.8.8,0,0,1,.8-.8h17.7a.8.8,0,0,1,.7.8V51.4a.8.8,0,0,1-.7.8H208.4l-2.6,5.9h23.7c.2,0,.4-.1.4-.3V26.7A.4.4,0,0,0,229.5,26.3Z"/><rect class="cls-1" x="265.2" y="15.9" width="5.2" height="5.4" rx="0.7"/><rect class="cls-1" x="272.8" y="15.9" width="5.2" height="5.4" rx="0.7"/><path class="cls-1" d="M272.4,26.1H251.6a.4.4,0,0,1-.4-.4V25a.7.7,0,0,0-.7-.8H246a.8.8,0,0,0-.7.8v8.2a.9.9,0,0,1-.3.6c-.6,1-1.9,2.7-2.5,3.6a.8.8,0,0,0,.2,1l3.6,2.6a.9.9,0,0,0,1.1-.2l3.4-4.8a2,2,0,0,0,.4-1.3V32.4c0-.2.2-.3.4-.3h15.3a.3.3,0,0,1,.3.3V46.6a1.1,1.1,0,0,1-.3.7L261.2,53a.7.7,0,0,0,0,1l3.2,3.2a.7.7,0,0,0,1,0l7.2-7.2a1.6,1.6,0,0,0,.6-1.3V26.8A.8.8,0,0,0,272.4,26.1Z"/><path class="cls-1" d="M83.8,48.9a31.8,31.8,0,0,0-.4-4,.6.6,0,0,0-.6-.5l-8.5-.8a.6.6,0,0,0-.6.3c-.2.1-.2.3-.2.6l-2.2-.6A9.8,9.8,0,0,1,66,38.6a99.7,99.7,0,0,0-5.2-10,8.7,8.7,0,0,0-2.7-3l-.7-.4h0A8.5,8.5,0,0,0,59,22.4a2.3,2.3,0,0,0,.3-1.8c-.1-.6-.5-1.2-2.4-2.4l-5.6-3.4-6.6-4.1a90.7,90.7,0,0,1-9.5-7C33.5,2,32.6.3,31.3.6s-1.2,2.3-1.9,1.9S25.2.3,23.4,0a2.4,2.4,0,0,0-1.9.7,5.4,5.4,0,0,0-1,1.8,49.3,49.3,0,0,1-2.2,5.3,130.4,130.4,0,0,1-8,14.5l-.4.7c-2,3.3-6.8,10.2-8.6,12.9A5.7,5.7,0,0,0,0,39.1,2.5,2.5,0,0,0,1.4,41l2.8,1.8a52.3,52.3,0,0,1,4.7,2.8A96.5,96.5,0,0,1,21.8,55.7c1.4,1.4,4.6,4.5,5.9,5.1,3,1.4,5-.3,6.3-1.8l.4-.6c.5-.5,3.8-5.5,7.9-11.6l.7.3a4.9,4.9,0,0,1,1.8,1.4,34.3,34.3,0,0,0,4.8,5.1c2,1.9,4.2,3.6,5.9,4.1s7.2,2.7,13.5,2.9h0v.3a.6.6,0,0,0,.5.6l9.2,2.7h.2c.1,0,.2,0,.2-.1S84.6,61.3,83.8,48.9ZM41.4,29.7a49.8,49.8,0,0,1-5.2-1.8,2.5,2.5,0,0,0-1.7-.3h-.1a3.7,3.7,0,0,0-1.7.5l-.9-.7-9.2-6.3,3.8-8.2,18,11.9ZM49,32.9h-.1l-1.6-1h.1l-.9-.4-2-.9-.9-.2,2.9-4.6a1.9,1.9,0,0,0-.6-2.6L27.4,10.8a2,2,0,0,0-2.7.5l-4.3,8.8a1.9,1.9,0,0,0,.6,2.6l10,6.9h.1a3.3,3.3,0,0,0-.4,2v.2h0a3.1,3.1,0,0,1,.2.8v.2H31a5.6,5.6,0,0,0,3.3,3.4L40,39.2c.4.3,1.5.7,2.5,1.2l.9.5-8,11.6c-1,1.4-2,3-2.6,3.9A9.4,9.4,0,0,1,31.4,58c-.9,1-1.4,1.1-2.3.8s-4.2-3.5-6-5.1a77.1,77.1,0,0,0-7-6.1c-2.3-1.8-8.3-5.8-11.5-7.8l-1.8-1c.3-.4.6-1.1,1.1-1.9,2-3.1,6.9-10.3,8.8-13.4l.4-.7a142.1,142.1,0,0,0,8.1-15c.7-1.5,1.5-4,2.1-5.4l4.5,2C31,6,33.3,7.8,37,10.6a78.5,78.5,0,0,0,7.1,4.9c5.1,3.2,8.7,5.2,12.2,6.4ZM70.5,59.4l-1-.2h-.4a37.5,37.5,0,0,1-11.3-2.2l-1.9-.6c-1.1-.3-3.2-1.8-5.3-3.8A36.1,36.1,0,0,1,46,47.6l-.8-.7a3.8,3.8,0,0,0-2-1.2h-.1l2.3-3.2a6,6,0,0,1,.8.8,7.1,7.1,0,0,1,1.9,2.9.6.6,0,0,0,.1.4A19.9,19.9,0,0,0,51.1,51a13.5,13.5,0,0,0,5.6,4.2H57a.8.8,0,0,0,.7-.5.9.9,0,0,0-.5-1.1,11.1,11.1,0,0,1-4.9-3.7,13.8,13.8,0,0,1-2.8-4.7c-.8-2.4-3.1-4-4.4-4.9s-.4-.3-.6-.4a39.3,39.3,0,0,0-3.9-2l-5.7-2.6a4.1,4.1,0,0,1-2.5-2.6,3.6,3.6,0,0,1-.2-1h-.1a2.5,2.5,0,0,1,.4-1.5,2.7,2.7,0,0,1,1.8-1.1h.2l1,.2c1.5.7,4.8,1.7,7,2.4L44,32l1.8.8.8.4h.2c2.9,1.8,5.1,3.1,6,3.5a4.6,4.6,0,0,0,1.9.4A3.3,3.3,0,0,0,57.1,36a1.3,1.3,0,0,0,.1-.6.9.9,0,0,0-.3-.5.8.8,0,0,0-1.1.1h-.1a1.4,1.4,0,0,1-1,.5,2.7,2.7,0,0,1-1.2-.3,5,5,0,0,1-1.3-.7l-1-.5.2-.3,5.1-7.3a7,7,0,0,1,2.9,2.8l1,1.8a78.7,78.7,0,0,1,4.2,8,11.2,11.2,0,0,0,6.2,6.2,17.7,17.7,0,0,0,2.9.7c.1.7.3,1.8.4,3.1a18.4,18.4,0,0,1-.7,6.3A7.1,7.1,0,0,1,70.5,59.4Zm10,1a5.9,5.9,0,0,1-1.4,1.9c-.1.2-.3.2-.4.3l-7.2-2.1a9.1,9.1,0,0,0,3.2-4.6,19,19,0,0,0,.8-7,25.3,25.3,0,0,0-.5-3.8l7,.7a18.2,18.2,0,0,1,.3,3.2C82.7,55.1,81.6,58.6,80.5,60.4Z"/><path class="cls-1" d="M13.7,32.5a1.2,1.2,0,0,0-1.7.3,1.4,1.4,0,0,0,.3,1.7l6.8,4.8a1.3,1.3,0,0,0,1.7-.3,1.3,1.3,0,0,0-.3-1.7Z"/><path class="cls-1" d="M14.7,28.8a1.1,1.1,0,0,0,.3,1.6l13.5,9.2a1.3,1.3,0,0,0,1.7-.4,1.3,1.3,0,0,0-.4-1.7L16.4,28.4A1.2,1.2,0,0,0,14.7,28.8Z"/></g></g></svg>