<svg xmlns="http://www.w3.org/2000/svg" xmlns:xlink="http://www.w3.org/1999/xlink" version="1.1" id="レイヤー_1" x="0px" y="0px" width="282.862px" height="268.592px" viewBox="0 0 282.862 268.592" enable-background="new 0 0 282.862 268.592" xml:space="preserve"><script xmlns=""/>
<g>
	<g>
		<path fill="#231815" d="M110.818,177.232h5.176c0.573,0,1.033-0.466,1.033-1.035v-5.432c0-0.57-0.459-1.037-1.033-1.037h-5.176    c-0.573,0-1.033,0.467-1.033,1.037v5.432C109.786,176.767,110.246,177.232,110.818,177.232z"/>
		<path fill="#231815" d="M121.424,177.232h5.173c0.57,0,1.04-0.466,1.04-1.035v-5.432c0-0.57-0.469-1.037-1.04-1.037h-5.173    c-0.57,0-1.03,0.467-1.03,1.037v5.432C120.394,176.767,120.854,177.232,121.424,177.232z"/>
		<path fill="#231815" d="M104.987,181.583c-0.466-0.471-1.103-0.73-1.765-0.73h-0.676H85.731c-0.575,0-1.033,0.457-1.033,1.033    v15.778c0,0.571,0.458,1.032,1.033,1.032h6.209c0.571,0,1.033-0.463,1.033-1.041c0-1.679,0-5.104,0-7.959    c0-0.333,0.291-0.569,0.616-0.569c2.757,0,5.139,0,6.761,0c0.316,0,0.612,0.137,0.843,0.362c3.364,3.362,21.3,21.39,25.346,25.44    c0.418,0.415,1.097,0.454,1.508,0.039l3.568-5.196c0.399-0.403,0.399-1.06,0-1.463L104.987,181.583z"/>
		<path fill="#231815" d="M47.788,153.793c-0.533-0.404-1.188-0.625-1.861-0.625h-0.191H31.598c-0.67,0-1.323,0.221-1.855,0.625    L5.211,172.658c-0.454,0.346-0.542,1.002-0.195,1.454l3.156,4.099c0.332,0.438,0.948,0.58,1.38,0.246    c1.151-0.89,3.54-2.723,6.368-4.898v17.574v8.655v12.761c0,0.555-0.43,1.031-0.991,1.031c-0.67,0-1.228,0-1.615,0    c-0.314,0-0.619,0.204-0.619,0.521v6.21c0,0.282,0.231,0.515,0.522,0.515H27.18c0.347,0,0.686-0.062,1.008-0.176l8.348-3.047    c0.263-0.102,0.405-0.397,0.305-0.662l-2.127-5.831c-0.095-0.265-0.38-0.417-0.643-0.32c-1.298,0.472-4.96,1.811-6.755,2.467    c-0.652,0.236-1.34,0.324-2.038,0.324c-0.317,0-0.687,0-1.097,0c-0.57,0-1.018-0.462-1.018-1.031v-11.726    c0-0.572,0.46-1.035,1.033-1.035h12.355c0.654,0,1.27,0.298,1.675,0.81l15.571,19.816c0.201,0.262,0.513,0.411,0.835,0.411h13.076    c0.283,0,0.515-0.232,0.515-0.515v-6.21c0-0.312-0.292-0.521-0.604-0.521c-1.663,0-6.349,0-8.959,0    c-0.618,0-1.222-0.25-1.603-0.736c-0.262-0.32-0.57-0.727-0.93-1.182c-0.332-0.425-0.229-1.062,0.271-1.265l4.104-1.655    c0.262-0.106,0.39-0.408,0.284-0.675l-2.319-5.757c-0.11-0.265-0.411-0.392-0.676-0.282l-6.051,2.441    c-0.563,0.229-1.219,0.056-1.593-0.421c-0.932-1.187-1.868-2.368-2.751-3.496c-0.25-0.317,0.028-0.765,0.436-0.765h13.252    c0.287,0,0.519-0.233,0.519-0.521v-25.708c2.72,2.096,5.037,3.872,6.237,4.796c0.472,0.358,1.155,0.329,1.514-0.144l3.151-4.099    c0.35-0.452,0.268-1.108-0.189-1.454L47.788,153.793z M54.366,191.459c0,0.575-0.427,1.087-1.008,1.087    c-6.111,0-22.881,0-29.096,0c-0.597,0-1.098-0.454-1.098-1.046c0-0.121,0-0.243,0-0.367c0-0.311,0-0.635,0-0.961    c0-0.563,0.47-1.002,1.033-1.002h29.133c0.594,0,1.036,0.526,1.036,1.115C54.366,190.687,54.366,191.08,54.366,191.459z     M54.366,180.851c0,0.586-0.455,1.074-1.036,1.074H24.198c-0.585,0-1.033-0.488-1.033-1.074c0-0.451,0-0.892,0-1.317    c0-0.549,0.451-0.98,1.003-0.98c6.117,0,22.878,0,29.103,0c0.575,0,1.096,0.411,1.096,0.98    C54.366,179.959,54.366,180.399,54.366,180.851z M57.989,171.308h-14.57c-0.569,0-1.032-0.464-1.032-1.033v-1.439    c0-0.287-0.238-0.52-0.518-0.52h-6.212c-0.283,0-0.515,0.232-0.515,0.52v1.439c0,0.569-0.462,1.033-1.033,1.033H18.851    c5.582-4.288,11.77-9.049,13.692-10.528c0.296-0.221,0.649-0.37,1.021-0.37c2.251,0,8.006,0,10.334,0    c0.357,0,0.71,0.082,0.99,0.299c1.792,1.38,8.113,6.234,13.792,10.6H57.989z"/>
		<g>
			<g>
				<path fill="#DA3E58" d="M118.941,252.064c-0.506,0.02-0.957-0.189-1.317-0.593c-0.266-0.259-0.435-0.64-0.467-1.079      c-0.027-0.366,0.07-1.079,0.975-3.62c1.387-4.022,2.475-6.96,3.237-8.734c3.896-9.075,8.73-17.805,14.35-25.939      c2.349-3.395,4.016-5.649,4.95-6.702c1.1-1.204,2.051-1.815,2.91-1.876c0.003,0,0.003,0,0.003,0      c0.646-0.024,1.21,0.197,1.751,0.639c0.653,0.519,1.015,1.17,1.067,1.939c0.054,0.771-0.323,1.909-1.179,3.563      c-2.207,4.224-4.208,8.998-5.954,14.18c-0.957,3.023-1.669,5.753-2.142,8.165c0.637-1.14,1.412-2.528,2.33-4.191      c1.851-3.323,4.872-8.224,8.991-14.551c2.407-3.676,4.625-6.814,6.593-9.32c1.319-1.686,2.548-2.547,3.743-2.627      c0,0,0.002,0,0.008,0c0.81-0.029,1.441,0.201,1.956,0.684c0.472,0.375,0.761,0.951,0.801,1.617      c0.065,0.844-0.308,2.082-1.12,3.787c-0.135,0.312-0.896,1.89-2.269,4.724c-2.446,5.139-4.043,8.679-4.878,10.813      c-2.277,5.861-3.933,10.894-4.895,14.969c-0.555,2.378-0.792,4.121-0.719,5.167c0.017,0.218,0.046,0.442,0.104,0.676      c0.219,1.124,0.26,1.406,0.265,1.535c0.052,0.782-0.186,1.525-0.711,2.211c-0.478,0.669-1.09,1.031-1.803,1.082h-0.004      c-0.642,0.025-1.456-0.183-2.138-1.257c-0.408-0.585-0.655-1.403-0.729-2.487c-0.372-5.377,2.768-15.242,9.572-30.05      c-3.595,5.191-7.409,11.66-11.392,19.317c-1.27,2.418-2.328,4.036-3.223,4.951c-0.945,0.949-1.914,1.467-2.876,1.534      c0,0-0.002,0-0.009,0c-1.103,0.035-1.904-0.394-2.448-1.236c-0.34-0.538-0.542-1.175-0.592-1.899      c-0.308-4.506,1.4-11.11,5.206-20.08c-0.643,0.952-1.264,1.939-1.864,2.974c-3.147,5.441-5.95,11.071-8.332,16.72      c-1.122,2.719-2.493,6.395-4.053,10.926c-0.893,2.627-2.088,3.959-3.641,4.072H118.941z"/>
			</g>
			<g>
				<path fill="#DA3E58" d="M166.201,241.491c-1.251,0-2.34-0.541-3.216-1.597c-0.571-0.673-0.915-1.479-1.033-2.416      c-0.155,0.21-0.314,0.408-0.464,0.594c-1.341,1.609-2.729,2.425-4.138,2.425c-1.28,0-2.324-0.614-3.019-1.767      c-0.43-0.715-0.648-1.562-0.648-2.519c0-2.149,0.696-4.537,2.075-7.091c1.523-2.839,3.402-5.049,5.568-6.571      c1.493-1.048,2.964-1.575,4.387-1.575c0.996,0,1.827,0.304,2.502,0.907c0.609,0.573,0.913,1.231,0.913,1.965      c0,0.435-0.125,0.964-0.387,1.613c0.225,0.38,0.333,0.746,0.333,1.091c0,0.533-0.277,1.236-0.894,2.266      c-0.533,0.865-1.067,2.029-1.597,3.473c-0.554,1.497-0.841,2.703-0.841,3.565c0,0.591,0.169,1.057,0.519,1.42l0,0      c0.002,0,0.191,0.132,0.934,0.472c0.735,0.341,1.135,0.981,1.135,1.812c0,0.562-0.224,1.04-0.652,1.396      C167.261,241.308,166.765,241.491,166.201,241.491z M164.727,225.361c-1.158,0-2.569,1.161-4.077,3.355      c-1.775,2.568-2.673,4.75-2.673,6.474c0,0.414,0.089,0.572,0.126,0.621c0.019,0.034,0.055,0.073,0.22,0.073      c0.285,0,1.112-0.244,2.554-2.485c0.676-1.016,1.515-2.519,2.497-4.488c0.689-1.35,1.18-2.23,1.511-2.684      c0.11-0.162,0.26-0.332,0.458-0.519c-0.071-0.086-0.141-0.146-0.208-0.203C164.995,225.41,164.867,225.361,164.727,225.361z"/>
			</g>
			<g>
				<path fill="#DA3E58" d="M166.863,257.481c-1.552,0-2.737-0.636-3.425-1.841c-0.391-0.676-0.579-1.448-0.579-2.286      c0-3.302,2.161-6.478,6.419-9.427c0.655-0.479,3.187-1.9,7.703-4.341c0.168-0.337,0.322-0.662,0.472-0.974      c-1.149,0.772-2.176,1.149-3.111,1.149c-0.797,0-1.902-0.293-2.681-1.662c-0.362-0.683-0.542-1.387-0.542-2.105      c0-1.54,0.609-3.429,1.871-5.766c1.733-3.269,3.853-5.895,6.304-7.811c2.159-1.669,4.043-2.48,5.764-2.48      c0.986,0,1.852,0.358,2.556,1.071c0.515,0.501,0.777,1.223,0.777,2.143c0,0.906-0.263,1.956-0.796,3.194      c0.391,0.43,0.562,0.776,0.562,1.13c0,0.305-0.144,0.623-0.451,1.019c-0.523,0.689-1.392,2.042-2.587,4.017      c-0.502,0.819-0.981,1.646-1.426,2.482c0.914-0.765,1.65-1.49,2.212-2.154c1.523-1.791,2.609-3.244,3.224-4.331      c0.481-0.769,1.025-1.138,1.646-1.138c0.89,0,1.467,0.544,1.467,1.396c0,0.675-0.401,1.634-1.26,3.014      c-2.403,3.796-6.023,7.153-10.769,9.972c-2.211,4.475-3.798,7.433-4.85,9.048C172.398,255.298,169.622,257.481,166.863,257.481z       M174.034,245.138c-1.76,0.987-3.365,2.278-4.798,3.845c-0.885,0.965-1.512,1.987-1.883,3.043      c-0.122,0.344-0.147,0.549-0.147,0.654c0,0.125,0.025,0.221,0.082,0.307c0.097,0.146,0.178,0.184,0.306,0.184      c0.549,0,1.767-0.472,3.753-3.575C172.331,248.071,173.229,246.581,174.034,245.138z M183.935,224.484      c-0.299,0-1.206,0.217-3.193,2.196c-1.852,1.832-3.308,3.907-4.335,6.168c-0.6,1.339-0.722,2.05-0.722,2.408      c0,0.242,0.05,0.318,0.05,0.318c0.34,0.024,0.996-0.12,2.556-1.847c0.782-0.872,1.453-1.733,1.991-2.557      c0.11-0.164,0.205-0.301,0.277-0.411c-0.191-0.269-0.27-0.48-0.27-0.7c0-0.519,0.393-0.934,0.686-1.202      c0.95-0.889,1.742-1.826,2.323-2.784c0.591-0.934,0.653-1.368,0.653-1.508L183.935,224.484z"/>
			</g>
			<g>
				<path fill="#DA3E58" d="M204.224,241.491c-1.252,0-2.338-0.541-3.221-1.599c-0.567-0.671-0.914-1.478-1.033-2.414      c-0.148,0.21-0.308,0.408-0.459,0.594c-1.341,1.609-2.731,2.425-4.141,2.425c-1.277,0-2.322-0.614-3.02-1.767      c-0.433-0.719-0.643-1.564-0.643-2.519c0-2.146,0.694-4.534,2.081-7.091c1.519-2.837,3.391-5.049,5.562-6.571      c1.494-1.048,2.963-1.575,4.389-1.575c0.98,0,1.824,0.304,2.492,0.907c0.614,0.573,0.92,1.231,0.92,1.965      c0,0.429-0.123,0.96-0.384,1.613c0.216,0.383,0.329,0.746,0.329,1.091c0,0.533-0.28,1.236-0.899,2.266      c-0.526,0.865-1.063,2.029-1.59,3.47c-0.559,1.5-0.841,2.697-0.841,3.568c0,0.591,0.171,1.057,0.515,1.42l0,0      c0.009,0,0.188,0.132,0.935,0.472c0.739,0.341,1.142,0.981,1.142,1.812c0,0.562-0.227,1.04-0.653,1.396      C205.282,241.308,204.778,241.491,204.224,241.491z M202.746,225.361c-1.157,0-2.567,1.161-4.082,3.355      c-1.765,2.569-2.662,4.752-2.662,6.474c0,0.414,0.091,0.572,0.129,0.621c0.017,0.036,0.05,0.073,0.212,0.073      c0.288,0,1.112-0.244,2.56-2.485c0.673-1.007,1.51-2.517,2.488-4.488c0.694-1.35,1.185-2.228,1.514-2.684      c0.107-0.162,0.26-0.332,0.461-0.519c-0.073-0.082-0.141-0.146-0.215-0.198C203.011,225.41,202.88,225.361,202.746,225.361z"/>
			</g>
			<g>
				<path fill="#DA3E58" d="M210.61,240.879c-0.612-0.038-1.171-0.281-1.666-0.71c-0.634-0.545-0.803-1.098-0.842-1.47      c-0.062-0.661,0.156-1.824,2.453-4.989c2.007-2.714,4.188-5.109,6.488-7.143c-0.897,0.034-1.565,0.031-2.019-0.002      c-3.015-0.19-3.604-1.688-3.688-2.566c-0.049-0.536,0.089-0.99,0.417-1.331c0.305-0.317,0.706-0.464,1.162-0.438      c0.179,0.009,0.532,0.055,1.657,0.32c0.197,0.045,0.568,0.103,1.298,0.16c1.58,0.099,3.122,0.02,4.581-0.237      c1.521-0.243,2.573-0.136,3.441,0.744c0.407,0.387,0.647,0.893,0.704,1.441c0.084,0.888-0.456,1.715-1.646,2.529      c-2.835,2.244-4.854,4.008-5.973,5.224c-1.026,1.156-1.903,2.245-2.597,3.246c1.023-0.178,1.988-0.238,2.855-0.181      c3.33,0.218,4.162,1.584,4.271,2.692c0.051,0.528-0.099,1-0.453,1.393c-0.348,0.403-0.824,0.599-1.367,0.561      c-0.186-0.003-0.524-0.06-1.545-0.377c-0.372-0.121-0.706-0.194-1.021-0.22c-1.51-0.095-2.933,0.137-4.222,0.695      C211.474,240.845,210.93,240.903,210.61,240.879z"/>
			</g>
			<g>
				<path fill="none" d="M264.24,229.467c0.36-0.245,0.814-0.594,1.268-1.083c0.556-0.603,0.921-1.279,1.296-1.977      c0.706-1.332,0.515-2.132,0.52-2.148c-0.472,0.305-1.282,1.105-1.709,1.766c-0.754,1.165-1.022,2.167-1.223,2.849      C264.325,229.069,264.323,229.269,264.24,229.467z"/>
				<path fill="#DA3E58" d="M231.888,218.113c0.223,0.075,0.467,0.137,0.737,0.165c0.267,0.033,0.53,0.037,0.786,0.019      c0.831-0.063,1.46-0.431,1.821-1.067c0.163-0.265,0.287-0.551,0.359-0.841c0.083-0.291,0.112-0.597,0.107-0.909      c-0.016-0.303-0.067-0.568-0.171-0.779c-0.122-0.243-0.293-0.435-0.524-0.573c-0.211-0.12-0.469-0.2-0.762-0.229      c-0.552-0.064-1.281-0.064-1.896,0.438c-0.258,0.211-0.502,0.473-0.719,0.786c-0.198,0.299-0.371,0.615-0.494,0.949      c-0.137,0.345-0.196,0.681-0.183,0.995c0.007,0.255,0.107,0.48,0.306,0.666C231.427,217.896,231.634,218.021,231.888,218.113z"/>
				<path fill="#DA3E58" d="M277.344,227.896c-0.095-0.434-0.425-0.686-0.89-0.686c-0.749,0-1.46,0.632-1.958,1.137l-0.82,0.905      c-0.646,0.726-1.307,1.428-1.982,2.121c-0.665,0.675-1.354,1.315-2.049,1.9c-0.378,0.321-0.785,0.623-1.228,0.919      c-0.442,0.289-0.896,0.549-1.347,0.772c-0.445,0.223-0.885,0.396-1.305,0.52c-0.67,0.198-1.262,0.25-1.614,0.08      c-0.151-0.066-0.267-0.162-0.356-0.28c-0.096-0.125-0.158-0.275-0.201-0.443c-0.023-0.1-0.039-0.205-0.039-0.314l1.367-1.203      c0.501-0.44,0.944-0.843,1.329-1.221c1.202-1.179,2.202-2.345,2.968-3.485c0.804-1.175,1.303-2.343,1.5-3.46      c0.102-0.59,0.154-1.159,0.144-1.702c-0.014-0.559-0.1-1.064-0.261-1.509c-0.167-0.475-0.43-0.856-0.794-1.151      c-0.631-0.529-1.623-0.649-2.691-0.233c-0.39,0.152-0.769,0.347-1.121,0.58c-0.348,0.233-0.689,0.5-1.011,0.792      c-0.33,0.295-0.619,0.604-0.879,0.916c-0.652,0.792-1.236,1.622-1.741,2.475c-0.498,0.838-0.939,1.699-1.305,2.564      c-0.215,0.497-0.399,0.994-0.573,1.495c-0.657,0.742-1.315,1.463-1.959,2.122c-0.682,0.712-1.359,1.342-1.992,1.87      c-0.606,0.516-1.17,0.918-1.677,1.204c-0.425,0.236-0.782,0.351-1.154,0.257c-0.115-0.212-0.188-0.494-0.22-0.843      c-0.045-0.399-0.054-0.849-0.02-1.333c0.027-0.517,0.072-1.028,0.124-1.512c0.115-0.998,0.183-1.917,0.223-2.764      c0.036-0.874-0.007-1.654-0.144-2.306c-0.138-0.711-0.409-1.283-0.803-1.702c-0.782-0.835-2.385-0.903-3.645-0.302      c-0.531,0.252-1.044,0.589-1.519,1.019c-0.451,0.4-0.905,0.878-1.33,1.416c-0.415,0.504-0.829,1.05-1.268,1.629      c-0.251,0.334-0.508,0.686-0.763,1.047c0.03-0.081,0.059-0.157,0.079-0.229c0.152-0.404,0.284-0.761,0.409-1.072l0.361-0.915      c0.118-0.313,0.224-0.608,0.32-0.897c0.091-0.307,0.17-0.614,0.226-0.948c0.073-0.398,0.098-0.739,0.079-1.049      c-0.016-0.32-0.073-0.596-0.173-0.842c-0.099-0.266-0.242-0.484-0.427-0.641c-0.373-0.319-0.902-0.321-1.401-0.244      c-0.275,0.043-0.531,0.134-0.784,0.281c-0.24,0.134-0.478,0.325-0.719,0.578c-0.231,0.235-0.432,0.537-0.647,0.937      c-0.163,0.305-0.309,0.66-0.462,0.998c-0.06,0.033-0.111,0.043-0.17,0.09c-0.146,0.111-0.287,0.244-0.42,0.411      c-0.095,0.118-0.183,0.233-0.256,0.348c-0.087,0.111-0.141,0.204-0.146,0.218c-0.257,0.346-0.6,0.757-1.021,1.238      c-0.437,0.496-0.9,0.998-1.378,1.51c-0.488,0.519-0.973,1.02-1.468,1.508c-0.474,0.491-0.905,0.916-1.279,1.268      c-1.037,0.988-2.002,1.777-2.853,2.351c-0.496,0.327-0.764,0.419-0.878,0.438c-0.249,0.058-0.479,0.091-0.618,0.025      c-0.088-0.242-0.143-0.571-0.161-0.985c-0.022-0.457-0.005-0.975,0.051-1.567c0.052-0.595,0.133-1.207,0.242-1.844      c0.103-0.567,0.243-1.221,0.422-1.957c0.169-0.743,0.398-1.572,0.681-2.486c0.164-0.518,0.325-1.051,0.487-1.596      c0.165-0.559,0.29-1.092,0.38-1.594c0.351-2.005-0.762-2.225-1.258-2.225c-0.813,0-1.611,0.358-2.364,1.063      c-0.693,0.657-1.194,1.367-1.504,2.126c-0.122,0.338-0.272,0.802-0.441,1.386c-0.162,0.565-0.319,1.149-0.477,1.753      c-0.155,0.604-0.299,1.184-0.426,1.738c-0.128,0.55-0.22,0.97-0.27,1.253c-0.121,0.705-0.237,1.453-0.328,2.239      c-0.086,0.792-0.14,1.585-0.149,2.367c-0.007,0.773,0.034,1.53,0.139,2.24c0.097,0.724,0.282,1.386,0.557,1.962      c0.289,0.603,0.686,1.099,1.19,1.46c0.54,0.378,1.204,0.565,1.999,0.565c0.682,0,1.447-0.207,2.25-0.627      c0.742-0.383,1.533-0.932,2.344-1.617c0.784-0.673,1.542-1.379,2.258-2.101c0.708-0.712,1.387-1.458,2.039-2.215      c0.019-0.025,0.036-0.049,0.058-0.077c-0.125,0.538-0.22,0.992-0.29,1.36c-0.551,3.126-0.115,4.865,1.33,5.341l0.263,0.085      l0.293-0.128c0.418-0.183,0.867-0.489,1.362-0.948c0.439-0.401,0.887-0.859,1.348-1.375c0.466-0.519,0.903-1.049,1.334-1.606      c0.427-0.554,0.795-1.061,1.103-1.511c0.868-1.27,1.578-2.288,2.122-3.053c0.512-0.74,0.939-1.302,1.264-1.691      c0.176-0.211,0.301-0.348,0.407-0.439c0.01,0.085,0.013,0.181,0.016,0.299c0.019,0.686-0.009,1.64-0.104,2.837      c-0.083,0.926-0.119,1.818-0.11,2.653c0.01,0.882,0.101,1.684,0.286,2.377c0.204,0.736,0.54,1.344,1,1.801      c0.8,0.789,2.306,0.924,3.531,0.543c0.442-0.135,0.88-0.327,1.295-0.564c0.39-0.229,0.775-0.484,1.16-0.774      c0.354-0.269,0.726-0.566,1.105-0.868c0.519-0.413,1.052-0.898,1.578-1.442c0.187-0.189,0.366-0.394,0.546-0.586      c0.04,0.995,0.224,1.834,0.585,2.497c0.694,1.302,1.877,1.961,3.531,1.961c0.726,0,1.486-0.159,2.282-0.459      c0.749-0.29,1.532-0.688,2.324-1.186c0.771-0.486,1.561-1.077,2.354-1.749c0.767-0.651,1.539-1.375,2.282-2.158      c0.753-0.772,1.472-1.595,2.164-2.446c0.679-0.862,1.322-1.734,1.937-2.648c0.491-0.829,0.593-1.176,0.631-1.386      C277.399,228.342,277.393,228.124,277.344,227.896z M265.614,226.024c0.427-0.66,1.237-1.461,1.709-1.766      c-0.005,0.017,0.187,0.816-0.52,2.148c-0.375,0.697-0.74,1.374-1.296,1.977c-0.453,0.489-0.907,0.838-1.268,1.083      c0.083-0.198,0.085-0.397,0.151-0.594C264.591,228.191,264.86,227.189,265.614,226.024z"/>
			</g>
		</g>
		<path fill="#231815" d="M193.627,171.186h-3.619h-38.541c-0.286,0-0.512,0.231-0.512,0.518v29.501c0,0,1.402-2.41,3.814-3.613    c2.184-1.093,4.461-0.863,4.461-0.863c0-6.271,0-12.069,0-16.156c0-0.61,0.477-1.108,1.084-1.108c5.917,0,18.713,0,24.559,0    c0.55,0,0.996,0.46,0.996,1.018c0,5.984,0,19.495,0,25.553c0,0.586-0.417,1.112-0.996,1.112c-4.155,0-14.367,0-20.574,0    l-3.562,8.273h32.89c0.283,0,0.518-0.239,0.518-0.524v-43.191C194.145,171.417,193.911,171.186,193.627,171.186z"/>
		<path fill="#231815" d="M244.22,164.293h5.164c0.567,0,1.033-0.465,1.033-1.03v-5.426c0-0.571-0.466-1.034-1.033-1.034h-5.164    c-0.569,0-1.036,0.463-1.036,1.034v5.426C243.184,163.828,243.651,164.293,244.22,164.293z"/>
		<path fill="#231815" d="M259.973,156.803h-5.169c-0.571,0-1.032,0.463-1.032,1.034v5.426c0,0.565,0.461,1.03,1.032,1.03h5.169    c0.569,0,1.032-0.465,1.032-1.03v-5.426C261.005,157.266,260.542,156.803,259.973,156.803z"/>
		<path fill="#231815" d="M253.217,170.932h-3.101h-25.819c-0.282,0-0.518-0.232-0.518-0.515v-1.069    c0-0.571-0.463-1.034-1.029-1.034h-6.193c-0.576,0-1.036,0.474-1.036,1.048c0,2.969,0,8.857,0,11.429    c0,0.313-0.118,0.604-0.299,0.855c-0.939,1.314-2.647,3.704-3.529,4.941c-0.321,0.454-0.176,1.071,0.272,1.396l5.042,3.601    c0.47,0.328,1.111,0.224,1.441-0.241l4.734-6.626c0.394-0.548,0.597-1.201,0.597-1.873v-3.132c0-0.31,0.293-0.517,0.601-0.517    c6.153,0,16.65,0,21.189,0c0.263,0,0.422,0.269,0.422,0.531c0,5.35,0,16.315,0,19.658c0,0.349-0.129,0.691-0.382,0.94    c-2.618,2.623-5.165,5.157-7.955,7.942c-0.396,0.402-0.38,1.05,0.015,1.449l4.386,4.385c0.398,0.401,1.056,0.401,1.458,0    l10.006-10.001c0.47-0.463,0.727-1.104,0.727-1.765v-30.37C254.246,171.391,253.791,170.932,253.217,170.932z"/>
	</g>
	<g>
		<path fill="#231815" d="M229.383,112.668c-0.149-2.548-0.406-5.297-0.804-8.256c-0.09-0.663-0.623-1.179-1.294-1.232    l-18.033-1.542c-0.468-0.034-0.92,0.15-1.216,0.505c-0.29,0.343-0.405,0.791-0.299,1.219c-1.727-0.282-3.375-0.673-4.697-1.219    c-4.234-1.734-8.694-5.011-11.254-11.182c-2.47-5.969-8.721-17.585-10.996-21.022c-1.759-2.646-2.902-4.584-5.681-6.297    c-0.579-0.356-1.046-0.631-1.437-0.851l0.149-0.217c2.566-3.801,2.758-4.371,3.302-5.655c0.641-1.53,0.945-2.316,0.669-3.794    c-0.239-1.262-1.117-2.526-5.168-4.988c-3.396-2.063-5.241-3.144-11.749-7.121c-5.303-3.24-10.312-6.485-13.873-8.837    c-6.269-4.146-16.61-11.281-19.964-14.688c-3.566-3.611-5.641-7.135-8.334-6.519c-2.781,0.63-2.428,4.895-4.008,4.097    c-3.229-1.366-8.687-4.647-12.575-5.273c-2.109-0.337-3.566,0.958-3.901,1.342c-0.886,1.02-1.966,2.96-2.249,3.83    c-1.32,4.021-2.842,7.477-4.603,11.195c-6.717,14.132-11.585,22.08-16.739,30.496l-0.936,1.538    c-4.23,6.917-14.301,21.505-18.081,27.142c-1.649,2.471-2.876,4.345-2.774,6.715c0.07,1.788,1.555,3.259,2.958,4.123    c2.473,1.516,4.803,2.962,5.895,3.609c2.049,1.218,7.052,4.139,9.799,6.025c11.126,7.623,16.59,11.282,27.221,21.293    c2.996,2.821,9.694,9.386,12.415,10.703c6.302,3.041,10.622-0.697,13.237-3.694l0.972-1.268c0.987-1.229,7.9-11.771,16.531-24.452    c0.486,0.148,1.075,0.35,1.633,0.608c1.274,0.592,2.679,1.687,3.62,2.949c1.834,2.437,5.762,6.681,10.088,10.65    c4.356,3.948,8.907,7.571,12.53,8.67c6.048,1.775,15.07,5.719,28.364,6.148c0.031,0.006,0.076,0.017,0.135,0.026    c-0.066,0.185-0.107,0.374-0.098,0.577c0.043,0.599,0.455,1.108,1.036,1.276l19.34,5.587c0.157,0.039,0.315,0.063,0.479,0.052    c0.182-0.013,0.357-0.059,0.521-0.134C220.021,144.642,230.966,138.889,229.383,112.668z M140.012,72.334    c-4.019-1.208-8.807-2.716-10.96-3.802c-1.113-0.568-2.333-0.819-3.621-0.75c-0.037,0-0.063,0-0.101,0    c-1.207,0.072-2.464,0.476-3.608,1.104c-0.721-0.523-1.39-1.008-1.877-1.347c-8.104-5.615-19.48-13.465-19.48-13.465l8.142-17.066    l37.897,25L140.012,72.334z M155.967,78.95l-0.046,0.067c-1.409-0.858-3.311-2.031-3.362-2.059l0.009-0.006    c-0.309-0.172-0.927-0.518-1.809-0.95c-1.009-0.494-2.573-1.203-4.273-1.732c-0.451-0.141-1.061-0.326-1.78-0.542l5.973-9.644    c1.23-1.847,0.741-4.335-1.098-5.567l-39.071-26.004c-1.842-1.237-4.337-0.744-5.568,1.108l-9.086,18.374    c-1.233,1.849-0.745,4.339,1.107,5.573c0,0,12.481,8.394,21.188,14.503c0.055,0.038,0.122,0.084,0.178,0.126    c-0.647,1.226-0.979,2.77-0.88,4.402c0.011,0.109,0.021,0.211,0.027,0.267v0.017l0.021,0.218l0.06,0.225    c0.165,0.593,0.292,1.187,0.387,1.779l0.039,0.247l0.084,0.246c0.794,2.224,2.659,5.294,7.062,7.308    c2.538,1.133,7.438,3.356,11.938,5.49c0.957,0.458,3.199,1.392,5.244,2.422c0.756,0.377,1.398,0.737,1.995,1.086    c-6.174,8.922-12.241,17.652-16.863,24.349c-2.078,2.998-4.192,6.31-5.594,8.244c-1.805,2.474-2.419,2.982-2.902,3.505    c-1.841,1.99-3.007,2.152-4.833,1.502c-2.253-0.784-8.926-7.264-12.575-10.718c-6.034-5.719-10.437-9.321-14.845-12.74    c-4.887-3.787-17.385-12.329-24.234-16.373c-1.856-1.095-3.562-2.072-3.71-2.179c0.562-0.86,1.199-2.307,2.323-4.042    c4.266-6.583,14.571-21.755,18.508-28.195l0.938-1.535c5.245-8.573,9.04-14.916,16.867-31.579    c1.52-3.232,3.359-8.364,4.527-11.313c3.464,1.4,7.367,3.167,9.467,4.206c6.651,3.292,11.491,7.089,19.483,13.098    c4.403,3.308,9.046,6.62,14.771,10.229c10.761,6.778,18.398,10.998,25.712,13.417C168.955,59.81,163.004,68.663,155.967,78.95z     M201.393,134.909c-0.884-0.196-1.644-0.354-2.141-0.458c-0.357-0.074-0.58-0.125-0.587-0.119l-0.35-0.057    c-10.313-0.321-17.74-2.778-23.709-4.75c-1.408-0.466-2.736-0.903-3.982-1.271c-2.309-0.64-6.738-3.778-11.288-7.982    c-4.248-3.881-8.098-8.068-9.705-10.21c-0.433-0.569-0.929-1.098-1.522-1.631c-0.272-0.275-2.244-2.005-4.227-2.508    c-0.098-0.024-0.177-0.046-0.265-0.074l4.81-6.89c0.594,0.585,1.107,1.148,1.654,1.717c2.349,2.464,3.449,4.35,3.972,6.13    c0.095,0.331,0.189,0.622,0.296,0.848c1.19,2.83,3.397,6.265,6.042,9.422c4.03,4.752,8.01,7.761,11.835,8.937    c0.199,0.06,0.407,0.09,0.605,0.071c0.725-0.046,1.33-0.527,1.536-1.216c0.273-0.904-0.238-1.865-1.144-2.135    c-3.025-0.9-6.841-3.836-10.207-7.867c-3.196-3.77-5.445-7.827-6.017-9.888c-1.512-5.099-6.512-8.471-9.203-10.28    c-0.505-0.341-0.901-0.614-1.17-0.826c-1.176-0.838-4.021-2.263-8.231-4.277c-3.357-1.595-7.723-3.607-11.982-5.525    c-3.412-1.551-4.835-3.854-5.41-5.463c-0.108-0.684-0.259-1.39-0.455-2.091l-0.01-0.105c-0.081-1.46,0.315-2.564,0.714-3.12    c0.77-1.109,2.347-2.1,3.76-2.35c0.19-0.033,0.375-0.049,0.57-0.054c0.754-0.055,1.43,0.087,2.077,0.418    c3.011,1.514,9.995,3.571,14.618,4.938c1.396,0.414,2.551,0.756,3.277,0.984c1.511,0.484,2.925,1.115,3.841,1.568    c0.839,0.404,1.414,0.726,1.617,0.845l0.287,0.176c6.271,3.879,10.816,6.527,12.807,7.449c1.39,0.643,2.744,0.927,4.035,0.847    c2.902-0.19,4.46-1.992,4.862-2.518c0.259-0.377,0.366-0.823,0.293-1.273c-0.077-0.453-0.32-0.85-0.689-1.114    c-0.702-0.511-1.741-0.381-2.298,0.266l-0.092,0.106c-0.072,0.097-0.874,1.046-2.275,1.106c-0.732,0.041-1.517-0.129-2.395-0.541    c-1.206-0.551-2.169-1.096-2.735-1.429l-2.233-1.173l0.473-0.673c5.118-7.267,8.513-12.104,10.778-15.388    c1.842,1.054,4.717,3.058,6.18,5.934c0.456,0.896,1.203,2.208,2.074,3.781c2.811,5.055,7.044,12.697,8.789,16.963    c3.132,7.584,8.785,11.202,12.981,12.896c1.687,0.679,3.79,1.196,6.251,1.545c0.262,1.521,0.59,3.815,0.737,6.453    c0.217,3.557,0.136,8.768-1.418,13.395C206.143,130.198,204.176,132.971,201.393,134.909z M222.488,136.997    c-0.924,1.675-1.962,3.047-3.092,4.062c-0.254,0.219-0.493,0.418-0.737,0.593l-15.264-4.415c3.115-2.344,5.396-5.649,6.8-9.844    c1.381-4.134,1.919-9.071,1.6-14.69c-0.187-3.239-0.63-6.019-0.982-7.883l14.823,1.377c0.287,2.339,0.489,4.584,0.61,6.655    C226.988,125.791,224.615,133.126,222.488,136.997z"/>
		<path fill="#231815" d="M81.761,78.133c-1.152-0.809-2.745-0.528-3.549,0.629c-0.806,1.156-0.528,2.743,0.628,3.564L93.038,92.47    c1.163,0.804,2.751,0.519,3.562-0.631c0.807-1.152,0.524-2.75-0.629-3.562L81.761,78.133z"/>
		<path fill="#231815" d="M83.764,70.326c-0.76,1.188-0.418,2.768,0.765,3.535l28.304,19.208c1.186,0.771,2.769,0.434,3.536-0.75    c0.763-1.197,0.428-2.772-0.756-3.536L87.305,69.568C86.117,68.799,84.543,69.144,83.764,70.326z"/>
	</g>
</g>
</svg>