<svg xmlns="http://www.w3.org/2000/svg" xmlns:xlink="http://www.w3.org/1999/xlink" version="1.1" id="rsttop_award_badge_silver" x="0px" y="0px" viewBox="0 0 86 19" enable-background="new 0 0 86 19" xml:space="preserve"><script xmlns=""/>
<g>
	<path fill="#FFFFFF" d="M6.912,7.903C5.218,7.012,3.756,6.242,3.756,4.729c0-1.379,1.042-2.269,2.654-2.269   c1.337,0,2.097,0.39,2.904,1.487l0.107,0.147l0.695-0.107l0.044-0.201c0.148-0.673,0.386-1.411,0.73-2.257l0.114-0.281   l-0.282-0.111C9.666,0.718,8.304,0.468,7.083,0.468c-3.569,0-5.968,2.041-5.968,5.079c0,2.882,2.22,4.032,4.179,5.047   c1.791,0.929,3.338,1.73,3.338,3.599c0,1.541-1.326,2.703-3.086,2.703c-1.28,0-2.349-0.613-3.008-1.727l-0.11-0.186l-0.734,0.158   l-0.042,0.186c-0.192,0.836-0.407,1.718-0.688,2.514L0.87,18.104l0.258,0.111c1.027,0.443,2.366,0.697,3.674,0.697   c3.792,0,6.545-2.389,6.545-5.68C11.346,10.238,8.99,8.998,6.912,7.903z"/>
	<path fill="#FFFFFF" d="M18.806,13.521V5.667c0-1.979,0.085-2.995,0.215-4.318l0.034-0.352L18.703,1.02   c-0.737,0.047-1.37,0.072-1.83,0.072c-0.5,0-1.257,0-1.698-0.047l-0.215-0.022l-0.738,1.63h0.706c0.704,0,0.826,0.266,0.886,0.517   c0.112,0.451,0.135,1.296,0.135,2.426v7.901c0,1.979-0.1,3.453-0.307,4.506l-0.075,0.382l0.389-0.024   c0.38-0.024,0.925-0.048,1.471-0.048c0.376,0,1.158,0,1.523,0.046l0.469,0.059l-0.147-0.449   C18.941,16.951,18.806,15.662,18.806,13.521z"/>
	<path fill="#FFFFFF" d="M34.148,15.215c-1.017,1.108-2.663,1.2-4.126,1.2c-2.534,0-2.534-0.542-2.534-2.822V5.69   c0-1.599,0.066-2.929,0.215-4.314L27.74,1.03l-0.348,0.014c-0.593,0.023-1.186,0.023-1.778,0.023c-0.004,0-0.008,0-0.011,0   c-0.597,0-1.169,0-1.766-0.023l-0.202-0.008l-0.73,1.616h0.704c0.704,0,0.826,0.266,0.887,0.518   c0.111,0.448,0.135,1.293,0.135,2.425v7.901c0,1.868-0.09,3.176-0.309,4.515l-0.06,0.363l0.368-0.015   c0.597-0.024,1.289-0.048,2.029-0.048c1.633,0,5.004,0.045,7.385,0.144l0.265,0.011l0.044-0.261   c0.162-0.971,0.361-1.787,0.611-2.496l0.081-0.228l-0.73-0.447L34.148,15.215z"/>
	<path fill="#FFFFFF" d="M51.901,1.021c-0.671,0.084-2.167,0.074-3.214,0.022l-0.438-0.021l0.139,0.416   c0.111,0.334,0.152,0.588,0.152,0.937c0,0.952-0.354,2.01-0.7,2.919l-3.121,8.14l-0.533,1.354   c-0.008-0.024-0.015-0.049-0.022-0.073c-0.119-0.382-0.246-0.788-0.346-1.076L40.784,4.69c-0.365-1.084-0.78-2.313-0.843-3.389   l-0.019-0.325l-0.323,0.046c-0.57,0.081-2.601,0.072-3.273,0.022l-0.21-0.017l-0.733,1.624h0.753c0.447,0,0.684,0.185,0.9,0.707   l0.12,0.271c0.178,0.402,0.448,1.01,0.691,1.683l4.011,10.906c0.432,1.15,0.473,1.404,0.609,2.248l0.045,0.274l0.277-0.023   c0.281-0.024,0.704-0.047,1.103-0.047c0.507,0,0.896,0.036,1.002,0.047l0.278,0.028l0.048-0.276   c0.123-0.711,0.271-1.294,0.702-2.337L50.32,5.539c0.424-1.05,0.987-2.342,1.949-3.971l0.102-0.172L52.075,1L51.901,1.021z"/>
	<path fill="#FFFFFF" d="M66.637,15.221c-1.193,1.102-2.641,1.194-4.144,1.194c-2.257,0-2.486-0.412-2.486-2.174v-4.023h2.126   c1.146,0,1.811,0.046,2.953,0.143l0.399,0.034l-0.08-0.392c-0.021-0.101-0.042-0.32-0.042-0.564c0-0.386,0.046-0.847,0.09-1.07   l0.078-0.391L64.73,8.044c-0.862,0.072-1.295,0.109-2.164,0.109h-2.559V5.667c0-0.909,0.042-1.927,0.081-2.695   c0.572-0.035,1.118-0.056,1.469-0.056c1.484,0,2.618,0.167,3.328,0.979l0.11,0.126l0.647-0.107l0.048-0.19   c0.205-0.819,0.459-1.574,0.776-2.308l0.189-0.435l-0.476,0.017c-1.354,0.048-2.2,0.071-3.352,0.071h-4.395   c-0.67,0-1.434,0-2.103-0.023L56.13,1.037l-0.731,1.615h0.706c0.704,0,0.826,0.266,0.886,0.517c0.107,0.43,0.159,1.224,0.159,2.426   v7.901c0,1.506-0.109,2.984-0.333,4.52l-0.052,0.354l0.356-0.011c0.863-0.024,1.821-0.048,3.33-0.048   c1.893,0,3.94,0.049,6.088,0.144l0.267,0.012l0.043-0.264c0.151-0.937,0.385-1.807,0.593-2.535l0.07-0.247l-0.728-0.336   L66.637,15.221z"/>
	<path fill="#FFFFFF" d="M85.124,17.591c-1.326-0.845-2.464-2.431-3.72-4.281c-0.902-1.319-1.832-2.682-2.772-4.008   c1.763-0.952,3.172-1.997,3.172-4.332c0-1.272-0.474-2.361-1.339-3.069c-0.852-0.677-1.808-0.904-3.789-0.904   c-0.964,0-1.761,0.028-2.483,0.055c-1.217,0.044-2.299,0.039-3.411-0.007l-0.203-0.008l-0.732,1.616h0.706   c0.704,0,0.826,0.266,0.886,0.517c0.112,0.451,0.135,1.296,0.135,2.426v7.901c0,2.306-0.054,2.876-0.309,4.518l-0.058,0.375   l0.378-0.03c0.603-0.045,2.431-0.045,3.003,0l0.448,0.035l-0.14-0.427c-0.33-1.016-0.465-2.305-0.465-4.446V5.667   c0-1.148,0.032-1.805,0.071-2.566l0.012-0.243c0.713-0.091,1.05-0.109,1.418-0.109c1.854,0,2.918,0.977,2.918,2.679   c0,2.846-2.711,2.99-3.254,2.99h-0.726l-0.363,1.776h0.608c0.489,0,0.817,0.17,1.582,1.222c1.346,1.847,2.394,3.427,3.303,4.978   c0.21,0.339,0.392,0.661,0.57,0.977c0.188,0.334,0.373,0.661,0.583,0.995l0.1,0.158l0.187-0.02   c0.646-0.069,1.415-0.089,2.305-0.111c0.354-0.009,0.729-0.019,1.132-0.032l0.188-0.006l0.278-0.624L85.124,17.591z"/>
</g>
</svg>