<svg xmlns="http://www.w3.org/2000/svg" xmlns:xlink="http://www.w3.org/1999/xlink" version="1.1" id="rsttop_award_badge_bronze" x="0px" y="0px" viewBox="0 0 103 20" enable-background="new 0 0 103 20" xml:space="preserve"><script xmlns=""/>
<g>
	<path fill="#FFFFFF" d="M10.52,9.275c1.242-0.76,2.307-1.837,2.307-3.687c0-1.202-0.485-2.302-1.337-3.02   c-0.808-0.652-1.75-0.906-3.358-0.906c-1.104,0-1.936,0.029-2.683,0.055C4.847,1.739,4.301,1.759,3.712,1.759   c-0.549,0-1.336-0.024-1.909-0.048L1.601,1.702L0.87,3.319h0.705c0.704,0,0.826,0.266,0.886,0.518   c0.107,0.428,0.159,1.221,0.159,2.425v7.901c0,2.425-0.108,3.096-0.234,3.872c-0.032,0.199-0.066,0.406-0.1,0.65l-0.049,0.357   l0.359-0.016c0.548-0.024,1.096-0.048,1.644-0.048c0.87,0,1.455,0.031,1.971,0.06c0.372,0.02,0.693,0.036,1.031,0.036   c3.431,0,6.905-1.926,6.905-5.607C14.147,11.177,12.718,9.565,10.52,9.275z M7.555,17.202c-1.051,0-1.393-0.139-1.722-0.43   c-0.339-0.301-0.355-1.136-0.355-2.585V6.334c0-0.67,0.023-1.433,0.045-2.158l0.018-0.654c0.435-0.056,1.038-0.107,1.413-0.107   c1.827,0,2.918,0.983,2.918,2.631c0,2.663-2.472,2.87-3.23,2.87H5.907L5.866,9.167c-0.069,0.413-0.14,0.819-0.257,1.241   L5.49,10.833l0.438-0.046c0.441-0.047,0.891-0.07,1.338-0.07c2.63,0,3.854,1.012,3.854,3.183   C11.121,15.905,9.721,17.202,7.555,17.202z"/>
	<path fill="#FFFFFF" d="M28.095,13.977c-0.902-1.319-1.832-2.682-2.771-4.008c1.763-0.952,3.172-1.997,3.172-4.332   c0-1.272-0.474-2.361-1.339-3.069c-0.852-0.677-1.808-0.904-3.789-0.904c-0.964,0-1.761,0.028-2.483,0.055   c-1.217,0.044-2.298,0.039-3.411-0.007L17.27,1.703l-0.732,1.616h0.706c0.704,0,0.826,0.266,0.886,0.517   c0.112,0.451,0.135,1.296,0.135,2.426v7.901c0,2.306-0.054,2.876-0.309,4.518l-0.058,0.375l0.378-0.03   c0.603-0.045,2.431-0.045,3.003,0l0.448,0.035l-0.139-0.427c-0.33-1.016-0.465-2.305-0.465-4.446V6.334   c0-1.148,0.033-1.805,0.071-2.566l0.012-0.243c0.713-0.091,1.049-0.109,1.417-0.109c1.855,0,2.918,0.977,2.918,2.679   c0,2.846-2.711,2.99-3.254,2.99h-0.726l-0.363,1.776h0.608c0.49,0,0.818,0.17,1.583,1.222c1.346,1.847,2.393,3.427,3.302,4.978   c0.211,0.339,0.392,0.661,0.57,0.976c0.189,0.334,0.374,0.661,0.583,0.995l0.1,0.158l0.186-0.02   c0.647-0.069,1.415-0.089,2.305-0.111c0.353-0.009,0.729-0.019,1.131-0.032l0.188-0.006l0.278-0.624l-0.218-0.139   C30.489,17.413,29.352,15.827,28.095,13.977z"/>
	<path fill="#FFFFFF" d="M41.698,1.086c-5.379,0-9.283,3.944-9.283,9.379c0,5.395,3.511,9.162,8.538,9.162   c5.545,0,9.571-4.035,9.571-9.595C50.525,4.598,47.06,1.086,41.698,1.086z M41.506,17.658c-3.443,0-5.848-3.136-5.848-7.626   c0-4.304,2.241-6.977,5.848-6.977c3.401,0,5.776,3.147,5.776,7.65C47.282,14.929,45.015,17.658,41.506,17.658z"/>
	<path fill="#FFFFFF" d="M68.299,1.734c-0.594,0.015-1.218,0.001-1.524-0.023L66.357,1.68l0.104,0.406   c0.521,2.009,0.591,4.222,0.591,6.121v5.092c0,0.345,0.003,0.619,0.009,0.851c-0.284-0.358-0.558-0.708-0.82-1.043l-6.865-8.853   c-0.832-1.076-1.113-1.594-1.412-2.143l-0.24-0.438l-0.191,0.014c-0.549,0.04-3.418,0.083-4.008,0.025l-0.215-0.02l-0.735,1.628   h0.704c0.705,0,0.826,0.266,0.887,0.518c0.105,0.422,0.158,1.254,0.158,2.473v8.238c0,1.546-0.016,2.572-0.33,4.119l-0.078,0.388   l0.395-0.028c0.662-0.049,1.846-0.049,2.65,0l0.438,0.026l-0.135-0.418c-0.449-1.397-0.537-2.769-0.537-4.664v-8.31   c0-0.038,0-0.075,0-0.113l9.094,11.586c0.492,0.63,0.971,1.316,1.424,2.04l0.098,0.156l0.183-0.017   c0.257-0.022,0.602-0.021,0.982-0.022h1.239l-0.055-0.347c-0.135-0.854-0.211-1.949-0.211-3.004V9.648c0-3.097,0-6.606,0.297-7.547   l0.134-0.421l-0.44,0.03C69.147,1.733,68.714,1.734,68.299,1.734z"/>
	<path fill="#FFFFFF" d="M85.887,15.905c-0.715,0.775-1.844,1.152-3.454,1.152h-2.642c-1.188,0-1.789-0.149-1.789-0.444   c0-0.252,0.139-0.54,0.672-1.399l5.813-9.055c0.637-0.99,0.936-1.406,1.882-2.619l0.074-0.096l-0.013-0.12   c-0.047-0.44-0.047-0.864-0.047-1.313V1.697l-0.312,0.014c-1.098,0.048-2.205,0.048-3.014,0.048h-4.803   c-0.799,0-2.082-0.048-2.938-0.096l-0.291-0.016L75,1.936c-0.105,1.191-0.229,1.996-0.398,2.611l-0.088,0.32l0.77,0.131l0.11-0.112   c1.122-1.146,2.823-1.304,4.493-1.304h2.884c-0.388,0.642-0.813,1.293-1.198,1.882c-0.182,0.278-0.357,0.548-0.521,0.802   l-5.38,8.286c-0.519,0.801-0.953,1.381-2.029,2.817l-0.082,0.109l0.028,0.134c0.065,0.305,0.065,0.68,0.065,1.113v0.307   l0.307-0.007c1.148-0.024,2.369-0.024,3.638-0.024c0.002,0,0.005,0,0.007,0c2.469,0,5.299,0.042,8.182,0.12l0.248,0.007   l0.053-0.243c0.178-0.817,0.375-1.691,0.62-2.551l0.071-0.247l-0.745-0.344L85.887,15.905z"/>
	<path fill="#FFFFFF" d="M101.26,15.752l-0.146,0.136c-1.193,1.102-2.641,1.194-4.145,1.194c-2.256,0-2.484-0.412-2.484-2.174   v-4.023h2.125c1.146,0,1.811,0.046,2.953,0.142l0.397,0.034l-0.078-0.392c-0.021-0.102-0.042-0.324-0.042-0.565   c0-0.386,0.045-0.847,0.09-1.07l0.078-0.391l-0.802,0.067c-0.862,0.072-1.296,0.109-2.165,0.109h-2.557V6.334   c0-0.916,0.041-1.931,0.08-2.695c0.572-0.035,1.118-0.056,1.469-0.056c1.484,0,2.617,0.167,3.328,0.979l0.11,0.126l0.647-0.107   l0.047-0.191c0.205-0.819,0.459-1.574,0.777-2.308l0.189-0.436l-0.476,0.017c-1.354,0.048-2.2,0.071-3.352,0.071h-4.396   c-0.669,0-1.434,0-2.104-0.024l-0.2-0.007l-0.73,1.615h0.704c0.705,0,0.826,0.266,0.887,0.518c0.107,0.428,0.158,1.221,0.158,2.425   v7.901c0,1.506-0.108,2.984-0.332,4.52l-0.053,0.354l0.357-0.011c0.863-0.024,1.821-0.048,3.33-0.048   c1.893,0,3.94,0.049,6.088,0.144l0.266,0.012l0.043-0.264c0.152-0.937,0.385-1.807,0.594-2.535l0.07-0.247L101.26,15.752z"/>
</g>
</svg>