<svg xmlns="http://www.w3.org/2000/svg" xmlns:xlink="http://www.w3.org/1999/xlink" version="1.1" id="rsttop_award_badge_gold" x="0px" y="0px" viewBox="0 0 74 20" enable-background="new 0 0 74 20" xml:space="preserve"><script xmlns=""/>
<g>
	<path fill="#FFFFFF" d="M14.5,10.648c-0.681,0-1.384,0-1.784-0.024l-0.206-0.012l-0.759,1.668h0.706   c0.979,0,1.189,0.123,1.189,1.429v1.057c0,1.602-0.127,2.438-2.87,2.438c-4.251,0-6.689-2.683-6.689-7.361   c0-4.354,2.375-6.953,6.353-6.953c1.741,0,3.286,0.649,4.467,1.877l0.11,0.114l0.635-0.105l0.049-0.188   c0.183-0.69,0.432-1.586,0.736-2.397l0.103-0.276l-0.273-0.108c-1.441-0.572-3.048-0.838-5.059-0.838   C4.832,0.968,0.87,4.47,0.87,10.107c0,5.632,3.641,8.995,9.739,8.995c1.877,0,3.767-0.287,5.776-0.877l0.238-0.07L16.6,17.908   c-0.082-0.861-0.119-1.764-0.119-2.926c0-1.377,0.07-2.703,0.214-4.051l0.044-0.416l-0.408,0.091   C16.148,10.648,15.234,10.648,14.5,10.648z"/>
	<path fill="#FFFFFF" d="M30.188,0.752c-5.379,0-9.283,3.944-9.283,9.378c0,5.395,3.511,9.163,8.538,9.163   c5.545,0,9.571-4.036,9.571-9.595C39.015,4.264,35.55,0.752,30.188,0.752z M29.996,17.324c-3.443,0-5.848-3.136-5.848-7.625   c0-4.304,2.241-6.977,5.848-6.977c3.401,0,5.776,3.145,5.776,7.649C35.772,14.595,33.505,17.324,29.996,17.324z"/>
	<path fill="#FFFFFF" d="M53.543,15.548c-1.018,1.107-2.664,1.2-4.127,1.2c-2.535,0-2.535-0.542-2.535-2.822V6.024   c0-1.597,0.066-2.928,0.215-4.315l0.037-0.346l-0.348,0.014c-0.592,0.024-1.183,0.024-1.777,0.024   c-0.576,0.003-1.176,0-1.777-0.024l-0.201-0.008l-0.73,1.617h0.705c0.703,0,0.824,0.265,0.885,0.517   C44,3.95,44.023,4.795,44.023,5.928v7.901c0,1.87-0.09,3.178-0.307,4.515l-0.061,0.363l0.367-0.015   c0.598-0.024,1.289-0.047,2.029-0.047c1.637,0,5.008,0.044,7.385,0.144l0.266,0.011l0.043-0.262   c0.164-0.977,0.363-1.793,0.611-2.495l0.08-0.229l-0.729-0.45L53.543,15.548z"/>
	<path fill="#FFFFFF" d="M69.748,2.277c-1.563-0.833-3.543-0.948-5.449-0.948c-0.769,0-1.582,0.025-2.383,0.049   c-0.777,0.023-1.545,0.047-2.254,0.047c-0.652,0-2.139-0.023-2.822-0.048L56.639,1.37l-0.73,1.616h0.705   c0.703,0,0.824,0.265,0.885,0.517c0.107,0.428,0.16,1.221,0.16,2.425v7.901c0,2.365-0.113,3.061-0.225,3.735   c-0.039,0.247-0.078,0.487-0.111,0.797l-0.035,0.344l0.346-0.013c1.398-0.052,2.814-0.043,4.025,0.004   c0.598,0.022,1.164,0.044,1.727,0.044c5.934,0,10.076-3.876,10.076-9.427C73.461,6.158,72.072,3.527,69.748,2.277z M63.721,16.724   c-3.025,0-3.205-0.163-3.205-2.918V6c0-0.672,0.021-1.345,0.045-2.002l0.018-0.617l0.402-0.02c0.83-0.043,1.689-0.086,2.549-0.086   c1.687,0,3.799,0.199,5.18,1.748c1.035,1.174,1.605,2.912,1.605,4.893C70.314,14.178,67.85,16.724,63.721,16.724z"/>
</g>
</svg>